<?xml version="1.0" standalone="no"?>
<!DOCTYPE svg PUBLIC "-//W3C//DTD SVG 20010904//EN"
 "http://www.w3.org/TR/2001/REC-SVG-20010904/DTD/svg10.dtd">
<svg version="1.0" xmlns="http://www.w3.org/2000/svg"
 width="1000.000000pt" height="1000.000000pt" viewBox="0 0 1000.000000 1000.000000"
 preserveAspectRatio="xMidYMid meet">
<metadata>
Created by potrace 1.14, written by Peter Selinger 2001-2017
</metadata>
<g transform="translate(0.000000,1000.000000) scale(0.100000,-0.100000)"
fill="#000000" stroke="none">
<path d="M0 5000 l0 -5000 5000 0 5000 0 0 5000 0 5000 -5000 0 -5000 0 0
-5000z m6050 237 c0 -321 3 -397 14 -412 13 -18 40 -21 110 -12 17 2 21 -8 31
-62 l12 -63 -35 -15 c-20 -8 -68 -17 -108 -20 -62 -5 -79 -2 -119 17 -85 41
-85 37 -85 533 l0 427 90 0 90 0 0 -393z m2492 -8 l3 -402 23 -15 c19 -13 22
-23 22 -83 l0 -68 -36 -7 c-82 -15 -148 19 -160 82 l-6 33 -25 -30 c-14 -16
-49 -42 -77 -57 -44 -23 -63 -27 -136 -27 -73 0 -93 4 -142 28 -67 33 -121 90
-157 166 -23 49 -26 68 -26 161 0 92 3 112 26 160 53 114 141 178 254 188 84
6 154 -17 211 -72 l44 -43 0 194 0 193 90 0 89 0 3 -401z m-6613 366 c63 -15
186 -69 197 -87 4 -6 -50 -118 -71 -145 -1 -2 -33 13 -71 32 -127 65 -250 71
-306 15 -19 -19 -28 -39 -28 -60 0 -68 33 -91 209 -139 238 -66 304 -128 305
-282 0 -127 -54 -205 -174 -250 -78 -30 -205 -36 -311 -15 -81 17 -239 82
-253 104 -4 6 12 45 34 86 l41 74 57 -34 c78 -47 169 -74 253 -74 84 0 135 19
149 55 30 78 -6 110 -179 165 -213 67 -263 96 -301 171 -23 44 -27 145 -8 200
53 156 246 233 457 184z m1608 -254 c52 -24 89 -78 103 -150 5 -30 10 -161 10
-292 l0 -239 -90 0 -90 0 0 213 c0 116 -5 229 -10 249 -23 83 -117 102 -202
42 -73 -52 -78 -71 -78 -301 l0 -203 -90 0 -90 0 0 345 0 345 80 0 80 0 0 -62
1 -63 27 31 c15 17 41 40 57 52 76 51 217 67 292 33z m753 -13 c64 -29 117
-72 143 -117 l18 -30 -87 -26 -86 -27 -30 31 c-99 102 -272 32 -293 -118 -26
-188 166 -311 296 -190 l33 31 80 -23 c44 -13 81 -29 83 -35 2 -6 -16 -34 -41
-61 -61 -67 -144 -105 -247 -111 -126 -7 -224 31 -303 118 -57 63 -79 121 -84
220 -7 138 41 236 154 312 68 46 116 58 224 54 66 -2 97 -8 140 -28z m742 4
c124 -55 208 -187 208 -329 l0 -53 -271 0 -271 0 6 -32 c14 -69 98 -137 170
-138 51 0 109 23 144 59 l35 34 66 -17 c36 -10 69 -21 74 -25 4 -4 -4 -23 -18
-42 -105 -142 -348 -183 -505 -84 -55 35 -117 110 -140 171 -27 75 -27 184 1
261 31 85 124 174 210 202 83 27 220 24 291 -7z m738 -51 l0 -80 -47 -6 c-49
-7 -116 -34 -143 -57 -48 -40 -50 -52 -50 -270 l0 -208 -90 0 -90 0 0 345 0
345 85 0 85 0 0 -66 0 -66 33 43 c39 52 124 99 178 99 l39 0 0 -79z m977 43
c70 -36 117 -94 132 -164 6 -28 11 -114 11 -190 0 -129 2 -141 20 -152 17 -11
20 -24 20 -84 0 -80 -3 -84 -71 -84 -67 0 -119 42 -119 95 0 22 -9 19 -50 -19
-82 -74 -220 -97 -315 -52 -139 64 -176 218 -79 326 55 61 121 84 239 85 55 0
117 -4 138 -8 37 -8 37 -8 37 25 0 121 -150 165 -304 89 -35 -17 -66 -31 -70
-31 -10 0 -56 102 -50 112 9 14 102 58 157 73 35 10 84 14 150 11 84 -2 105
-7 154 -32z m850 17 c52 -24 89 -78 103 -150 5 -30 10 -161 10 -292 l0 -239
-90 0 -90 0 0 213 c0 116 -5 229 -10 249 -23 83 -117 102 -202 42 -73 -52 -78
-71 -78 -301 l0 -203 -90 0 -90 0 0 345 0 345 80 0 80 0 0 -62 1 -63 27 31
c15 17 41 40 57 52 76 51 217 67 292 33z m-5123 -236 c49 -135 92 -245 96
-245 3 0 42 110 85 245 l79 245 83 0 c46 0 83 -4 83 -9 0 -15 -288 -827 -304
-858 -39 -75 -125 -125 -216 -126 -97 0 -100 3 -100 90 l0 75 55 -7 c49 -6 57
-4 78 17 13 14 32 48 41 76 l18 53 -136 339 c-75 187 -136 342 -136 345 0 3
42 5 93 5 l92 0 89 -245z"/>
<path d="M8138 5200 c-80 -24 -130 -101 -130 -200 0 -174 194 -261 314 -140
l38 38 0 101 0 102 -44 44 c-57 56 -114 74 -178 55z"/>
<path d="M4794 5211 c-48 -22 -83 -66 -91 -116 l-6 -35 177 0 c176 0 176 0
176 23 0 40 -43 99 -89 124 -53 28 -111 29 -167 4z"/>
<path d="M6513 4981 c-48 -12 -78 -35 -93 -71 -11 -27 -11 -36 4 -66 31 -66
124 -81 215 -35 48 25 71 60 71 110 0 36 -3 40 -32 50 -49 15 -129 21 -165 12z"/>
</g>
</svg>
