<svg width="800" height="800" fill="none" xmlns="http://www.w3.org/2000/svg"><path fill="#fff" d="M0 0h800v800H0z"/><path d="M572.903 129.377H349.929V730.5h222.974V129.377z" fill="#CDFAF1"/><g clip-path="url(#a)"><path d="M158.69 583.665h4.643l18.536-37.024c16.303-24.766 26.577-35.822 30.821-33.17 4.244 2.652-.471 16.766-14.145 42.342l-18.651 27.852h25.34a7.3 7.3 0 0 1 7.284 7.753l-5.451 87.587c-1.06 17.041-15.187 30.319-32.256 30.319h-21.622c-17.07 0-31.196-13.278-32.256-30.319l-5.451-87.587a7.3 7.3 0 0 1 7.284-7.753h23.329l-34.364-51.315c-13.673-25.576-18.388-39.691-14.145-42.343 4.244-2.652 14.518 8.405 30.822 33.17l12.177 24.324-14.52-91.622-.443-52.191c11.564-4.145 18.256-3.687 20.076 1.374 2.463 6.846 5.241 22.774 8.334 47.784l2.631 126.771 2.027 4.048z" fill="#32CFC0"/><path d="m161.507 568.102 23.152-153.509 21.372 50.652-35.597 118.37h-6.165l.009.05h-11.266l-32.92-114.139 21.635-12.513 19.78 111.089z" fill="#32CFC0"/><path d="M154.21 461.623c5.317-20.302 10.498-30.053 15.542-29.254 5.26.834 7.634 12.428 7.122 34.783l-13.675 90.672-1.637 10.244c-.79-3.628-1.588-7.72-2.395-12.277-.806-4.557-1.95-11.439-3.432-20.646l-1.525-73.522zm57.006 150.72-.682 10.949h-93.068l-.682-10.949h94.432zm-88.45-28.678h82.468a7.3 7.3 0 0 1 7.284 7.753l-.686 11.018h-95.664l-.686-11.018a7.3 7.3 0 0 1 7.284-7.753zm-17.341-49.857c3.859-42.855 8.748-68.453 14.667-76.795 5.918-8.342 13.283-8.342 22.093 0-16.862 54.889-27.185 83.969-30.971 87.243-3.786 3.273-5.716-.21-5.789-10.448zm121.978-30.925c-.085 11.896-2.329 15.942-6.731 12.139-4.402-3.803-16.407-37.592-36.013-101.366 10.244-9.692 18.807-9.692 25.69 0 6.882 9.692 12.567 39.435 17.054 89.227zM125.622 412.68v-9.348c6.847-6.068 13.529-5.95 20.047.356 1.353 1.309 2.753 8.416 4.201 21.322l-24.248-12.33z" fill="#CDFAF1"/></g><path d="M145.136 291.874a22.92 22.92 0 0 1-21.807-6.846 22.915 22.915 0 0 1-5.039-22.293L157.462 136.7a22.683 22.683 0 0 1 16.813-15.553 22.685 22.685 0 0 1 21.804 6.806l89.56 96.921a22.888 22.888 0 0 1-11.771 37.81l-128.657 29.19h-.075zm30.702-164.072a15.85 15.85 0 0 0-11.797 10.889l-39.172 126.035a16.08 16.08 0 0 0 10.543 20.079c2.683.844 5.54.969 8.287.364l128.732-29.089a16.056 16.056 0 0 0 8.268-26.568l-89.561-96.946a15.857 15.857 0 0 0-15.3-4.764z" fill="#32CFC0"/><path d="M192.248 243.477a8.416 8.416 0 0 1 6.73-10.083 8.349 8.349 0 0 1 10.31 6.251 8.481 8.481 0 0 1-1.084 6.504 8.485 8.485 0 0 1-2.33 2.427 8.444 8.444 0 0 1-3.09 1.328 8.558 8.558 0 0 1-6.64-.964 8.543 8.543 0 0 1-3.896-5.463zM177.552 176.3l15.754-3.63 8.823 50.414-10.537 2.521-14.04-49.305z" fill="#32CFC0"/><path d="M495.12 259.71h-34.79l-4.175 23.731c6.934-3.711 13.33-5.567 19.19-5.567 4.687 0 9.057.879 13.11 2.637 4.102 1.758 7.691 4.199 10.767 7.324 3.076 3.076 5.493 6.739 7.251 10.987 1.757 4.248 2.636 8.813 2.636 13.696 0 7.08-1.587 13.525-4.76 19.336-3.174 5.81-7.764 10.425-13.77 13.843-5.957 3.418-12.842 5.127-20.654 5.127-8.74 0-15.845-1.612-21.314-4.834-5.42-3.223-9.277-6.91-11.572-11.06-2.246-4.199-3.369-7.861-3.369-10.986 0-1.905.781-3.711 2.344-5.42 1.611-1.709 3.613-2.564 6.006-2.564 4.101 0 7.153 2.368 9.155 7.105 1.953 4.345 4.59 7.739 7.91 10.18 3.32 2.393 7.031 3.589 11.133 3.589 3.76 0 7.055-.976 9.887-2.929 2.833-1.954 5.005-4.639 6.519-8.057 1.563-3.418 2.344-7.3 2.344-11.646 0-4.687-.83-8.691-2.49-12.011-1.661-3.321-3.882-5.786-6.666-7.398-2.783-1.66-5.883-2.49-9.301-2.49-4.199 0-7.202.513-9.009 1.538-1.807 1.025-4.419 2.832-7.837 5.42-3.369 2.539-6.152 3.809-8.35 3.809-2.392 0-4.516-.855-6.372-2.564-1.855-1.758-2.783-3.735-2.783-5.932 0-.245.269-1.905.806-4.981l6.152-35.083c.684-4.199 1.953-7.251 3.809-9.155 1.855-1.905 4.883-2.857 9.082-2.857h38.672c7.617 0 11.425 2.906 11.425 8.716 0 2.539-.927 4.59-2.783 6.152-1.855 1.563-4.59 2.344-8.203 2.344zm101.807 36.621c0 8.008-.489 14.893-1.465 20.655-.977 5.761-2.783 10.986-5.42 15.673-3.32 5.762-7.617 10.206-12.891 13.331-5.273 3.125-11.132 4.687-17.578 4.687-7.422 0-14.087-2.1-19.995-6.299-5.859-4.199-10.278-10.01-13.257-17.431-1.513-4.053-2.636-8.521-3.369-13.404-.683-4.931-1.025-10.254-1.025-15.967 0-7.373.39-14.013 1.172-19.921.781-5.909 2.002-10.987 3.662-15.235 2.881-7.031 7.055-12.378 12.524-16.04 5.518-3.711 12.085-5.566 19.702-5.566 5.03 0 9.595.83 13.697 2.49a30.21 30.21 0 0 1 10.766 7.178c3.125 3.125 5.762 7.007 7.91 11.645 3.711 8.057 5.567 19.458 5.567 34.204zm-20.069-1.465c0-8.935-.537-16.235-1.611-21.899-1.074-5.713-2.881-10.01-5.42-12.891-2.539-2.929-6.055-4.394-10.547-4.394-6.445 0-10.937 3.247-13.476 9.741-2.491 6.494-3.736 16.504-3.736 30.029 0 9.18.537 16.7 1.612 22.559 1.074 5.859 2.881 10.303 5.42 13.33 2.539 2.979 5.981 4.468 10.327 4.468 4.492 0 8.008-1.563 10.547-4.688 2.539-3.125 4.321-7.592 5.346-13.403 1.026-5.81 1.538-13.428 1.538-22.852zm109.278 1.465c0 8.008-.489 14.893-1.465 20.655-.977 5.761-2.783 10.986-5.42 15.673-3.32 5.762-7.617 10.206-12.891 13.331-5.273 3.125-11.132 4.687-17.578 4.687-7.422 0-14.087-2.1-19.995-6.299-5.859-4.199-10.278-10.01-13.257-17.431-1.513-4.053-2.636-8.521-3.369-13.404-.683-4.931-1.025-10.254-1.025-15.967 0-7.373.39-14.013 1.172-19.921.781-5.909 2.002-10.987 3.662-15.235 2.881-7.031 7.055-12.378 12.524-16.04 5.518-3.711 12.085-5.566 19.702-5.566 5.03 0 9.595.83 13.697 2.49a30.21 30.21 0 0 1 10.766 7.178c3.125 3.125 5.762 7.007 7.91 11.645 3.711 8.057 5.567 19.458 5.567 34.204zm-20.069-1.465c0-8.935-.537-16.235-1.611-21.899-1.074-5.713-2.881-10.01-5.42-12.891-2.539-2.929-6.055-4.394-10.547-4.394-6.445 0-10.937 3.247-13.476 9.741-2.491 6.494-3.736 16.504-3.736 30.029 0 9.18.537 16.7 1.612 22.559 1.074 5.859 2.881 10.303 5.42 13.33 2.539 2.979 5.981 4.468 10.327 4.468 4.492 0 8.008-1.563 10.547-4.688 2.539-3.125 4.321-7.592 5.346-13.403 1.026-5.81 1.538-13.428 1.538-22.852zM426.327 387.992v-17.088h-1.296v17.088h1.296zm17.746 0v-17.088h-1.296v14.808l-9.864-14.808h-1.296v17.088h1.296v-14.856l9.864 14.856h1.296zm14.862-15.936v-1.152h-11.496v1.152h5.088v15.936h1.296v-15.936h5.112zm13.729 15.936v-1.152h-9.072v-6.888h7.728V378.8h-7.728v-6.744h9.072v-1.152h-10.368v17.088h10.368zm15.568 0-4.128-7.896c2.4-.408 3.936-2.064 3.936-4.608 0-2.976-2.112-4.584-4.896-4.584h-6.504v17.088h1.296v-7.872h4.704l4.08 7.872h1.512zm-1.488-12.48c0 2.352-1.584 3.456-3.768 3.456h-5.04v-6.912h5.04c2.184 0 3.768 1.104 3.768 3.456zm18.125 12.48v-17.088h-1.296v14.808l-9.864-14.808h-1.296v17.088h1.296v-14.856l9.864 14.856h1.296zm16.735 0-6.288-17.088h-1.152l-6.288 17.088h1.392l1.488-4.152h7.968l1.488 4.152h1.392zm-3.288-5.304h-7.152l3.576-10.056 3.576 10.056zm16.645 5.304v-1.152h-9.072v-15.936h-1.296v17.088h10.368zm19.516-4.584c0-1.368-.552-2.544-1.488-3.312-.72-.6-1.44-.888-3.048-1.128l-1.848-.288c-.96-.144-1.944-.552-2.544-1.056-.6-.504-.888-1.248-.888-2.232 0-2.16 1.488-3.528 3.96-3.528 2.04 0 3.096.648 4.152 1.584l.84-.84c-1.464-1.272-2.808-1.848-4.92-1.848-3.264 0-5.304 1.824-5.304 4.68 0 1.32.432 2.376 1.344 3.144.72.624 1.752 1.056 3.048 1.248l1.992.312c1.392.216 1.848.384 2.472.912.624.552.936 1.392.936 2.4 0 2.232-1.704 3.528-4.392 3.528-2.064 0-3.312-.48-4.848-2.016l-.912.912c1.56 1.56 3.144 2.256 5.688 2.256 3.552 0 5.76-1.848 5.76-4.728zm14.422 4.584v-1.152h-9.072v-6.888h7.728V378.8h-7.728v-6.744h9.072v-1.152h-10.368v17.088h10.368zm13.911-17.088h-1.368l-4.8 14.808-4.8-14.808h-1.368l5.616 17.088h1.104l5.616-17.088zm13.253 17.088v-1.152h-9.072v-6.888h7.728V378.8h-7.728v-6.744h9.072v-1.152h-10.368v17.088h10.368zm15.567 0-4.128-7.896c2.4-.408 3.936-2.064 3.936-4.608 0-2.976-2.112-4.584-4.896-4.584h-6.504v17.088h1.296v-7.872h4.704l4.08 7.872h1.512zm-1.488-12.48c0 2.352-1.584 3.456-3.768 3.456h-5.04v-6.912h5.04c2.184 0 3.768 1.104 3.768 3.456zm22.155 12.48v-1.152h-9.072v-6.888h7.728V378.8h-7.728v-6.744h9.072v-1.152h-10.368v17.088h10.368zm15.568 0-4.128-7.896c2.4-.408 3.936-2.064 3.936-4.608 0-2.976-2.112-4.584-4.896-4.584h-6.504v17.088h1.296v-7.872h4.704l4.08 7.872h1.512zm-1.488-12.48c0 2.352-1.584 3.456-3.768 3.456h-5.04v-6.912h5.04c2.184 0 3.768 1.104 3.768 3.456zm17.261 12.48-4.128-7.896c2.4-.408 3.936-2.064 3.936-4.608 0-2.976-2.112-4.584-4.896-4.584h-6.504v17.088h1.296v-7.872h4.704l4.08 7.872h1.512zm-1.488-12.48c0 2.352-1.584 3.456-3.768 3.456h-5.04v-6.912h5.04c2.184 0 3.768 1.104 3.768 3.456zm16.71 3.936c0-3.864-.024-5.376-1.584-6.936a6.027 6.027 0 0 0-4.272-1.752 6.027 6.027 0 0 0-4.272 1.752c-1.56 1.56-1.584 3.072-1.584 6.936s.024 5.376 1.584 6.936a6.027 6.027 0 0 0 4.272 1.752 6.027 6.027 0 0 0 4.272-1.752c1.56-1.56 1.584-3.072 1.584-6.936zm-1.296 0c0 3.672-.096 4.992-1.32 6.216-.864.864-2.016 1.32-3.24 1.32-1.224 0-2.376-.456-3.24-1.32-1.224-1.224-1.32-2.544-1.32-6.216s.096-4.992 1.32-6.216c.864-.864 2.016-1.32 3.24-1.32 1.224 0 2.376.456 3.24 1.32 1.224 1.224 1.32 2.544 1.32 6.216zm17.504 8.544-4.128-7.896c2.4-.408 3.936-2.064 3.936-4.608 0-2.976-2.112-4.584-4.896-4.584h-6.504v17.088h1.296v-7.872h4.704l4.08 7.872h1.512zm-1.488-12.48c0 2.352-1.584 3.456-3.768 3.456h-5.04v-6.912h5.04c2.184 0 3.768 1.104 3.768 3.456z" fill="#000"/><path d="M311.86 438.604c-.441-11.59 8.593-21.436 20.178-21.992a20.75 20.75 0 0 1 21.773 19.979l3.999 105.159c.441 11.59-8.593 21.436-20.177 21.991a20.748 20.748 0 0 1-21.774-19.978l-3.999-105.159z" fill="#3A3A3A"/><path d="M332.019 416.113c-11.861.569-21.11 10.649-20.659 22.515l3.999 105.159a21.244 21.244 0 0 0 22.293 20.454c11.86-.569 21.109-10.649 20.658-22.515l-3.999-105.159a21.243 21.243 0 0 0-22.292-20.454z" stroke="#3A3A3A"/><path d="M363.033 698.892c-.128-11.638-9.667-20.969-21.305-20.84-11.638.128-20.969 9.667-20.84 21.305.128 11.638 9.666 20.968 21.304 20.84 11.639-.128 20.969-9.667 20.841-21.305z" fill="#FDBA90" stroke="#FDBA90"/><path d="M317.177 702.913a4.001 4.001 0 0 1 3.931-3.559l40.557-.447a4.001 4.001 0 0 1 3.359 1.761l8.705 12.888c.296.438.502.93.607 1.448l1.939 9.61a4 4 0 0 1-3.877 4.791l-53.713.592a4 4 0 0 1-4.02-4.44l2.512-22.644z" fill="#662D03"/><path d="M315.578 548.477c-.211-11.784 9.1-21.544 20.881-21.888 11.744-.343 21.591 8.801 22.118 20.538l6.509 145.042-46.968-1.835-2.54-141.857z" fill="#3A3A3A"/><path d="m365.067 692.668.543.022-.024-.544-6.51-145.041c-.539-12.01-10.614-21.366-22.632-21.016-12.054.352-21.581 10.339-21.366 22.397l2.54 141.857.009.472.471.018 46.969 1.835z" stroke="#3A3A3A"/><path d="M357.338 546.787c.462-11.313-8.334-20.858-19.646-21.32-11.313-.463-20.858 8.333-21.32 19.646-.462 11.312 8.333 20.857 19.646 21.32 11.312.462 20.857-8.334 21.32-19.646z" fill="#3A3A3A" stroke="#3A3A3A"/><path d="M298.937 443.037c3.086-11.18-3.45-22.835-14.598-26.032a20.75 20.75 0 0 0-25.775 14.454L230.56 532.9c-3.086 11.179 3.449 22.834 14.598 26.032a20.75 20.75 0 0 0 25.775-14.454l28.004-101.441z" fill="#3A3A3A"/><path d="M284.472 416.523c11.414 3.274 18.105 15.206 14.945 26.652l-28.004 101.441a21.244 21.244 0 0 1-26.388 14.798c-11.414-3.274-18.105-15.206-14.946-26.652l28.005-101.441a21.243 21.243 0 0 1 26.388-14.798z" stroke="#3A3A3A"/><path d="M189.203 685.834c2.204-11.428 13.255-18.906 24.683-16.702 11.429 2.204 18.906 13.255 16.703 24.683-2.204 11.429-13.255 18.906-24.684 16.703-11.428-2.204-18.906-13.255-16.702-24.684z" fill="#FDBA90" stroke="#FDBA90"/><path d="M234.104 698.605a4 4 0 0 0-3.17-4.685l-45.131-8.704a4.001 4.001 0 0 0-2.799.489l-29.279 17.385c-3.163 1.878-2.327 6.67 1.285 7.367l70.127 13.523a4 4 0 0 0 4.685-3.17l4.282-22.205z" fill="#662D03"/><path d="M270.126 549.131c2.907-11.422-3.919-23.057-15.307-26.093-11.353-3.026-23.035 3.615-26.24 14.919l-39.278 138.517 46.131 9.006 34.694-136.349z" fill="#3A3A3A"/><path d="m189.205 676.965-.534-.104.149-.523 39.278-138.517c3.28-11.567 15.233-18.363 26.849-15.266 11.654 3.107 18.638 15.012 15.664 26.7l-34.694 136.348-.117.458-.463-.09-46.132-9.006z" stroke="#3A3A3A"/><path d="M229.865 537.911c2.144-11.118 12.894-18.392 24.011-16.248 11.117 2.144 18.392 12.894 16.248 24.011-2.144 11.117-12.894 18.391-24.011 16.247-11.117-2.143-18.391-12.893-16.248-24.01z" fill="#3A3A3A" stroke="#3A3A3A"/><path d="M257.822 378.962c0-13.255 10.745-24 24-24h48.553c13.255 0 24 10.745 24 24v69.266h-96.553v-69.266z" fill="#3A3A3A"/><path d="M354.375 448.728h.5v-69.766c0-13.531-10.969-24.5-24.5-24.5h-48.553c-13.531 0-24.5 10.969-24.5 24.5v69.766h97.053z" stroke="#3A3A3A"/><path d="M346.492 291.986c-6.448 7.567-5.594 18.988 1.908 25.511a17.785 17.785 0 0 0 25.258-1.888l48.532-56.945c6.448-7.566 5.594-18.987-1.907-25.511a17.786 17.786 0 0 0-25.259 1.889l-48.532 56.944z" fill="#FDBA90"/><path d="M346.87 292.315c-6.269 7.355-5.439 18.46 1.854 24.802a17.291 17.291 0 0 0 24.557-1.836l48.532-56.945c6.269-7.356 5.439-18.46-1.855-24.802a17.291 17.291 0 0 0-24.557 1.836l-48.531 56.945z" stroke="#FDBA90"/><mask id="b" style="mask-type:alpha" maskUnits="userSpaceOnUse" x="342" y="228" width="85" height="94"><path d="M346.87 292.315c-6.269 7.355-5.439 18.46 1.854 24.802a17.291 17.291 0 0 0 24.557-1.836l48.532-56.945c6.269-7.356 5.439-18.46-1.854-24.802a17.291 17.291 0 0 0-24.557 1.836l-48.532 56.945z" fill="#F8DAC3" stroke="#F8DAC3"/></mask><g mask="url(#b)"><path d="M346.896 319.03c-8.361-7.218-9.507-19.593-2.559-27.64l27.481-34.986 28.919 31.774-26.123 29.352c-6.948 8.047-19.357 8.719-27.718 1.5z" fill="#ED9D63"/></g><path d="m330.783 192.543-13.633 37.605 83.553 27.758c9.578 3.182 20.015-1.872 23.454-11.36a18.273 18.273 0 0 0-10.848-23.411l-82.526-30.592z" fill="#FDBA90"/><path d="m413.131 223.602-82.049-30.415-13.287 36.649 83.07 27.597c9.32 3.097 19.474-1.822 22.821-11.052a17.78 17.78 0 0 0-10.555-22.779z" stroke="#FDBA90"/><circle cx="18.698" cy="18.698" r="18.198" transform="scale(1 -1) rotate(63.163 427.002 207.644)" fill="#FDBA90" stroke="#FDBA90"/><path d="M346.347 204.389c4.117 10.709 1.489 18.645-9.385 25.137-10.874 6.492-18.813 4.357-29.075-6.734-7.552-8.161-16.714-19.464-17.643-26.595-.374-2.865.573-6.329 3.01-6.878 2.436-.55 3.634 1.861 4.702 4.733 1.206 3.246 3.594 7.203 6.278 6.544 1.584-.389 2.686-3.346 1.98-5.519-1.16-3.564-2.634-6.287-4.762-9.598a222.875 222.875 0 0 0-4.959-7.379l-.396-.559c-1.749-2.664-1.121-5.345.78-6.708 3.65-2.617 6.194.791 6.538 1.289a175.56 175.56 0 0 0-1.009-1.489l-.277-.402c-1.341-1.917-.796-4.026 1.017-5.334 1.812-1.307 4.183-.702 5.353.335 1.169 1.037 2.452 2.871 2.452 2.871 3.329-3.18 6.784-2.08 8.285-.576 1.501 1.504 3.088 3.677 4.994 6.759.286.462.477.783.722 1.19a3.747 3.747 0 0 1 1.33-1.666c1.704-1.192 3.503-.385 4.937 1.237 1.434 1.623 5.664 7.884 7.702 12.078 2.039 4.195 3.31 6.556 7.426 17.264z" fill="#FDBA90"/><path d="M324.952 175.476a3.747 3.747 0 0 1 1.33-1.666c1.704-1.192 3.503-.385 4.937 1.237 1.434 1.623 5.664 7.884 7.702 12.078 2.039 4.195 3.31 6.556 7.426 17.264 4.117 10.709 1.489 18.645-9.385 25.137-10.874 6.492-18.813 4.357-29.075-6.734-7.552-8.161-16.714-19.464-17.643-26.595-.374-2.865.573-6.329 3.01-6.878 2.436-.55 3.634 1.861 4.702 4.733 1.206 3.246 3.594 7.203 6.278 6.544 1.584-.389 2.686-3.346 1.98-5.519-1.16-3.564-2.634-6.287-4.762-9.598a222.875 222.875 0 0 0-4.959-7.379l-.396-.559c-1.749-2.664-1.121-5.345.78-6.708 3.929-2.817 6.577 1.348 6.577 1.348m21.498 3.295c-.245-.407-.436-.728-.722-1.19-1.906-3.082-3.493-5.255-4.994-6.759-1.501-1.504-4.956-2.604-8.285.576m14.001 7.373c2.005 3.257 5.492 9.218 6.126 10.927m-20.127-18.3s3.455 4.865 3.888 5.51m-3.888-5.51s2.36 3.379 3.888 5.51m-3.888-5.51s-1.283-1.834-2.452-2.871c-1.17-1.037-3.541-1.642-5.353-.335-1.813 1.308-2.358 3.417-1.017 5.334l.277.402c.243.355.6.879 1.048 1.548m11.385 1.432c2.924 4.426 4.749 7.505 7.268 12.173m-18.653-13.605c.898 1.34 2.16 3.255 3.608 5.55 0 0 4.421 7.167 6.677 11.288m-10.285-16.838s.354.542.5.749c.291.414.605.953 1.117 1.697 1.021 1.486 3.829 6.061 3.829 6.061" stroke="#FDBA90" stroke-linecap="round" stroke-linejoin="round"/><path d="M325.474 175.267c2.044 2.843 6.002 8.944 5.48 10.606m-19.307-16.83c3.626 4.457 10.96 14.431 11.287 18.663m-7.224 4.998c-1.911-4.328-7.213-14.655-13.134-21.333" stroke="#ED9D63" stroke-linecap="round" stroke-linejoin="round"/><path d="m372.239 319.616-.005.006c-7.399 8.57-20.344 9.519-28.914 2.12-8.569-7.399-9.519-20.343-2.121-28.912l.001-.002 30.274-35.692.406-.479.375.502 24.419 32.611.238.316-.254.304-24.419 29.226z" fill="#12736E" stroke="#12736E"/><path fill-rule="evenodd" clip-rule="evenodd" d="m305.077 276.537-60.11 9.575a6 6 0 0 0-4.99 6.812l10.965 75.752s6.174-8.13 9.217-13.883c3.26-6.163 5.49-12.949 6.74-17.334.774-2.715 3.222-4.678 6.045-4.678h65.66c2.607 0 4.915 1.682 5.84 4.121 1.467 3.869 3.894 9.604 6.613 13.333 5.35 7.336 11.281 11.136 11.281 11.136l9.884-68.297a6 6 0 0 0-4.978-6.81l-60.267-9.725a5.995 5.995 0 0 0-1.9-.002z" fill="#12736E"/><path d="M257.796 412.165s42.737 3.441 61.718 3.441c18.98 0 34.908-3.441 34.908-3.441l7.916-50.794s-5.931-3.8-11.281-11.136c-2.719-3.729-5.146-9.464-6.613-13.333-.925-2.439-3.233-4.121-5.84-4.121h-65.66c-2.823 0-5.271 1.963-6.045 4.678-1.25 4.385-3.48 11.171-6.74 17.334-3.043 5.753-9.217 13.883-9.217 13.883l6.854 43.489z" fill="#3A3A3A"/><path d="m334.572 362.405-52.73 1.241.569 24.198 28.675 11.282 24.02-14.016-.534-22.705z" stroke="#FCEFE6" stroke-linecap="round" stroke-linejoin="round" stroke-dasharray="7 7"/><path d="m355.525 412.706 15.059-102.497 8.536-7.084" stroke="#FCEFE6" stroke-linecap="round" stroke-linejoin="round"/><path d="M290.061 263.299c0-8.857 7.18-16.038 16.038-16.038 8.857 0 16.037 7.181 16.037 16.038v15.167c0 8.858-7.18 16.038-16.037 16.038-8.858 0-16.038-7.18-16.038-16.038v-15.167z" fill="#FDBA90"/><path d="M290.561 263.299c0-8.581 6.956-15.538 15.538-15.538 8.581 0 15.537 6.957 15.537 15.538v15.167c0 8.581-6.956 15.538-15.537 15.538-8.582 0-15.538-6.957-15.538-15.538v-15.167z" stroke="#FDBA90"/><mask id="c" style="mask-type:alpha" maskUnits="userSpaceOnUse" x="290" y="247" width="33" height="48"><path d="M290.561 263.299c0-8.581 6.956-15.538 15.538-15.538 8.581 0 15.537 6.957 15.537 15.538v15.167c0 8.581-6.956 15.538-15.537 15.538-8.582 0-15.538-6.957-15.538-15.538v-15.167z" fill="#F8DAC3" stroke="#F8DAC3"/></mask><g mask="url(#c)"><path d="M265.268 200.822c0-18.186 14.743-32.929 32.93-32.929 18.187 0 32.93 14.743 32.93 32.929v35.771c0 18.186-14.743 32.93-32.93 32.93-18.187 0-32.93-14.744-32.93-32.93v-35.771z" fill="#ED9D63"/></g><path d="M250.807 205.971c.085.298.18.589.286.879a16.25 16.25 0 0 0 2.302 4.158l.052.067c.368.478.758.953 1.174 1.425a38.825 38.825 0 0 0 3.526 3.415l.745.626c.504.425 1.011.839 1.518 1.248-2.451-.227-4.509 2.188-4.655 4.545-.147 2.358 1.094 4.569 2.528 6.486 2.516 3.395 5.804 5.46 8.821 8.309 2.26 2.12 3.691 4.779 6.115 6.775l.181.15c6.375 5.041 15.513 5.3 23.281 6.847 2.791.562 14.758 14.324 29.075 7.004 3.188-1.631 6.644-3.272 9.84-7.004 11.474-13.283 13.254-35.528 3.717-50.154-10.254-15.741-29.405-26.736-42.35-27.158-12.945-.422-18.731-.264-23.715 2.853-4.985 3.117-6.69 11.13-1.857 14.361-2.996-1.667-6.538-2.21-9.95-1.524-3.157.574-6.002 2.228-8.002 4.655a13.875 13.875 0 0 0-2.984 6.668 12.427 12.427 0 0 0 .352 5.369z" fill="#934103"/><path d="M324.21 227.549a8.5 8.5 0 1 1 16.879-2.03 8.5 8.5 0 0 1-16.879 2.03zM264.323 234.752a8.5 8.5 0 1 1 16.878-2.03 8.5 8.5 0 0 1-16.878 2.03z" fill="#FDBA90" stroke="#FDBA90"/><path d="M268.268 231.35c.913.661 2.744 2.353 2.774 3.83M336.638 223.555c-1.426.172-2.108 2.937-1.786 4.378" stroke="#662D03" stroke-linecap="round" stroke-linejoin="round"/><path d="M271.521 215.363c-2.407-20.007 15.696-36.379 35.36-31.981a29.198 29.198 0 0 1 22.617 25.007l3.005 24.989c1.926 16.01-9.491 30.549-25.501 32.475-16.01 1.926-30.55-9.492-32.476-25.502l-3.005-24.988z" fill="#FDBA90"/><path d="M272.017 215.303c-2.365-19.664 15.428-35.755 34.755-31.433a28.697 28.697 0 0 1 22.229 24.579l3.006 24.989c1.893 15.735-9.329 30.026-25.065 31.919-15.736 1.892-30.027-9.33-31.919-25.065l-3.006-24.989z" stroke="#FDBA90"/><mask id="d" style="mask-type:alpha" maskUnits="userSpaceOnUse" x="234" y="156" width="109" height="79"><path d="M272.571 224.793s-1.306-8.909-.955-11.534c.652-4.892 4.458-7.198 5.305-8.743 9.453 8.776 29.752 16.08 44.897 10.566.692 5.756 4.852 16.123 7.458 15.81 2.605-.314 1.943-14.035 5.43-13.668 5.461-11.04 16.483-29.372-4.742-39.419l1.344-2.507 2.719-2.103c-2.73-2.391-11.87-2.557-13.864 1.316 0 0-5.643-11.225-25.271-17.041-22.715-6.732-51.37 23.495-51.37 23.495l-9.154 23.74 29.395 29.912s-.945-4.595 3.723-8.198c2.169-1.674 5.085-1.626 5.085-1.626z" fill="#D9D9D9"/></mask><g mask="url(#d)"><path d="M250.489 204.677c.086.304.181.602.287.899a16.892 16.892 0 0 0 2.298 4.255l.051.068c.367.49.755.977 1.169 1.461a39.547 39.547 0 0 0 3.508 3.5l.741.642a92.37 92.37 0 0 0 1.509 1.281c-2.431-.241-4.461 2.217-4.598 4.625-.137 2.407 1.102 4.67 2.53 6.633 2.507 3.477 5.774 5.598 8.776 8.519 2.247 2.173 3.676 4.894 6.086 6.942l.181.154c6.338 5.172 15.398 5.47 23.104 7.078 2.769.585 32.591 5.216 32.803 6.984-.046-.384 2.446-3.496 5.599-7.296 11.327-13.525 13.186-35.784 3.677-50.757-10.223-16.114-27.675-25.915-42.083-27.892-14.408-1.977-18.569-.339-23.499 2.826-4.931 3.166-6.592 11.344-1.788 14.662a14.13 14.13 0 0 0-9.869-1.593 13.173 13.173 0 0 0-7.917 4.725 14.273 14.273 0 0 0-2.933 6.799 13.08 13.08 0 0 0 .368 5.485z" fill="#934103"/><path d="M250.282 204.083c.078.531.13 1.041.246 1.351.426 1.608 1.474 3.853 1.881 4.363.407.51 1.487 1.979 1.948 2.482 1.207 1.297 2.938 2.908 2.938 2.908s1.426 1.276 1.988 1.711c-1.56-.115-3.922 2.459-4.098 4.983-.175 2.525 1.194 4.886 2.78 6.93 2.783 3.621 6.43 5.814 9.772 8.848 2.503 2.258 4.082 5.097 6.769 7.221 2.416-3.384 3.74-7.32 3.814-11.338.102-7.421 5.003-13.341 4.383-20.765-2.215-6.282-5.325-7.69-8.802-11.088a43.421 43.421 0 0 0-9.249-6.313c-2.617-1.188-5.783-1.042-8.648-.312-2.498.624-4.963 1.931-5.686 3.19-.32 1.923-.364 3.576-.036 5.829z" fill="#662D03"/></g><path d="M311.082 251.681a16.398 16.398 0 0 0-11.476-.611" stroke="#662D03" stroke-linecap="round"/><path d="M302.784 229.461c3.201 2.317 4.976 11.641 4.976 11.641l-5.236.75" stroke="#662D03" stroke-linecap="round" stroke-linejoin="round"/><path d="M322.047 219.812c-5.442-1.552-10.661-.989-15.416 1.663M295.714 223.198c-2.246 2.516-7.947 2.516-16.947 2.516" stroke="#662D03" stroke-linecap="round"/><path d="M315.06 223.857c-3.338.337-2.639 7.265.703 6.965l.153-.015c3.344-.338 2.645-7.266-.702-6.966l-.148.015-.006.001zM287.916 228.469c-3.334.377-2.639 7.263.703 6.966l.153-.016c3.338-.336 2.639-7.262-.703-6.965l-.153.015z" fill="#662D03"/><path d="M273.763 231.901c-.17-1.414-1.781-11.767-2.121-14.595-.882-7.337 4.915-12.778 4.915-12.778" stroke="#662D03" stroke-linecap="round" stroke-linejoin="round"/><path d="M299.063 448.927c1.026.083-1.39-.047 0 0zm0 0c6.516.219 17.913-.347 22.38-2.954m-22.38 2.954-4.518 14.259" stroke="#fff" stroke-linecap="round" stroke-linejoin="round"/><path d="M231.868 302.586c4.665-8.779 15.6-12.185 24.425-7.608a17.787 17.787 0 0 1 7.533 24.184l-35.108 66.072c-4.664 8.778-15.599 12.185-24.424 7.607a17.786 17.786 0 0 1-7.533-24.183l35.107-66.072z" fill="#FDBA90"/><path d="M232.312 302.817c4.535-8.535 15.167-11.847 23.746-7.397a17.29 17.29 0 0 1 7.324 23.511l-35.107 66.072c-4.535 8.535-15.167 11.847-23.747 7.397a17.292 17.292 0 0 1-7.323-23.511l35.107-66.072z" stroke="#FDBA90"/><mask id="e" style="mask-type:alpha" maskUnits="userSpaceOnUse" x="194" y="292" width="72" height="103"><path d="M232.312 302.817c4.535-8.535 15.167-11.847 23.746-7.397a17.29 17.29 0 0 1 7.324 23.511l-35.107 66.072c-4.535 8.535-15.167 11.847-23.746 7.397a17.29 17.29 0 0 1-7.324-23.511l35.107-66.072z" fill="#F8DAC3" stroke="#F8DAC3"/></mask><g mask="url(#e)"><path d="M257.409 292.046c-9.787-5.12-21.698-1.67-26.603 7.707l-21.494 39.697 36.542 17.678 20.395-38.833c4.905-9.377.947-21.128-8.84-26.249z" fill="#ED9D63"/></g><path d="m304.193 414.683-32.543 23.183-61.191-40.484c-8.46-5.597-10.804-17.062-5.219-25.532a18.041 18.041 0 0 1 24.934-5.214l74.019 48.047z" fill="#FDBA90"/><path d="m229.906 367.059 73.397 47.642-31.665 22.558-60.907-40.296c-8.228-5.444-10.508-16.596-5.077-24.833a17.547 17.547 0 0 1 24.252-5.071z" stroke="#FDBA90"/><circle cx="216.469" cy="379.657" r="18.198" transform="rotate(-63.51 216.469 379.657)" fill="#FDBA90" stroke="#FDBA90"/><path d="m281.556 457.921 68.287-44.894a13.9 13.9 0 0 0 16.241-.536 13.894 13.894 0 0 0 4.631-15.576l-9.402 5.872a2 2 0 0 1-2.736-.606l-1.468-2.258a2.001 2.001 0 0 1 .616-2.787l9.357-5.849a13.893 13.893 0 0 0-16.146-1.96 13.9 13.9 0 0 0-6.948 14.706l-68.372 44.898a13.899 13.899 0 0 0-20.872 16.112l9.829-6.572a2 2 0 0 1 2.79.574l1.473 2.272a2 2 0 0 1-.566 2.751l-9.876 6.603a13.883 13.883 0 0 0 21.994-4.266 13.882 13.882 0 0 0 1.084-8.48l.084-.004z" fill="#737EF2"/><path d="M334.622 429.326s6.707 4.8 6.707 9.263c0 4.462-7.991 9.275-13.413 9.586-5.423.312-6.396-5.747-5.436-8.938.96-3.191 12.142-9.911 12.142-9.911z" fill="#FDBA90"/><path d="M279.053 400.064s19.834 6.955 25.125 6.311c5.29-.645 13.883-4.445 17.858-3.183 3.974 1.262 14.877 18.194 15.87 21.174.994 2.981-7.935 13.562-9.922 15.213-1.987 1.652-8.271 8.271-9.587 8.929-1.316.658-9.923 8.271-14.219 8.271-4.297 0-11.252-1.92-12.246-4.968-.671-1.651 0-4.287 0-4.287l-19.147-8.938s-23.174-16.28-29.78-26.86c-6.606-10.581 36.048-11.662 36.048-11.662z" fill="#FDBA90"/><path d="M305.13 437.269a5.37 5.37 0 0 1 4.619 4.632c.671 4.297-.994 11.91-.994 11.91M312.73 430.985s4.632.335 4.632 4.632v11.91M317.698 419.088s7.981 4.922 8.639 8.561a45.982 45.982 0 0 1 0 10.02m9.776-8.043c-3.525 4.476-9.483 12.321-14.135 16.381" stroke="#ED9D63" stroke-width="1.257" stroke-linecap="round" stroke-linejoin="round"/><path d="m248.336 351.721.404.132.195-.378 18.098-35.114.001-.002c5.247-10.031 1.369-22.417-8.662-27.665-10.031-5.248-22.418-1.371-27.666 8.659l-.001.002-21.83 40.903-.281.526.567.185 39.175 12.752z" fill="#12736E" stroke="#12736E"/><path d="m267.961 288.168 11.018 58.947" stroke="#3A3A3A" stroke-width="15" stroke-linecap="square" stroke-linejoin="round"/><path d="m270.053 339.464 1.43 6.523 9.09 4.156 4.935-5.974-.96-10.483" stroke="#FCEFE6" stroke-linecap="round" stroke-linejoin="round"/><path d="m337.941 286.633-4.759 59.779" stroke="#3A3A3A" stroke-width="15" stroke-linecap="square" stroke-linejoin="round"/><path d="m343.663 305.659-3.684 39.682-8.633 5.038-5.504-5.454-.086-10.526" stroke="#FCEFE6" stroke-linecap="round" stroke-linejoin="round"/><path fill="#3A3A3A" d="M537.306 516.606h150.721v207.957H537.306z"/><rect x="514.41" y="463.186" width="196.751" height="54.178" rx="1.993" fill="#12736E"/><path d="M545.776 509.852c0-1.101.892-1.993 1.993-1.993h74.905c1.1 0 1.992.892 1.992 1.993v7.512h-78.89v-7.512z" fill="#fff"/><rect x="639.874" y="483.146" width="37.069" height="5.703" rx=".498" fill="#fff"/><circle cx="524.864" cy="473.642" r="2.851" fill="#F74930"/><circle cx="543.874" cy="473.642" r="2.851" fill="#00A76F"/><circle cx="534.368" cy="473.642" r="2.851" fill="#FFDF00"/><circle cx="688.349" cy="485.998" r="7.604" fill="#fff"/><rect x="514.41" y="528.784" width="196.751" height="54.178" rx="1.993" fill="#12736E"/><path d="M545.776 575.449c0-1.1.892-1.992 1.993-1.992h74.905c1.1 0 1.992.892 1.992 1.992v7.513h-78.89v-7.513z" fill="#fff"/><rect x="639.874" y="548.744" width="37.069" height="5.703" rx=".498" fill="#fff"/><circle cx="524.864" cy="539.239" r="2.851" fill="#F74930"/><circle cx="543.874" cy="539.239" r="2.851" fill="#00A76F"/><circle cx="534.368" cy="539.239" r="2.851" fill="#FFDF00"/><circle cx="688.349" cy="551.595" r="7.604" fill="#fff"/><rect x="514.41" y="594.381" width="196.751" height="54.178" rx="1.993" fill="#12736E"/><path d="M545.776 641.047c0-1.101.892-1.993 1.993-1.993h74.905c1.1 0 1.992.892 1.992 1.993v7.512h-78.89v-7.512z" fill="#fff"/><rect x="639.874" y="614.341" width="37.069" height="5.703" rx=".498" fill="#fff"/><circle cx="524.864" cy="604.836" r="2.851" fill="#F74930"/><circle cx="543.874" cy="604.836" r="2.851" fill="#00A76F"/><circle cx="534.368" cy="604.836" r="2.851" fill="#FFDF00"/><circle cx="688.349" cy="617.193" r="7.604" fill="#fff"/><rect x="514.41" y="659.979" width="196.751" height="54.178" rx="1.993" fill="#12736E"/><path d="M545.776 706.644c0-1.1.892-1.992 1.993-1.992h74.905c1.1 0 1.992.892 1.992 1.992v7.512h-78.89v-7.512z" fill="#fff"/><rect x="639.874" y="679.939" width="37.069" height="5.703" rx=".498" fill="#fff"/><circle cx="524.864" cy="670.434" r="2.851" fill="#F74930"/><circle cx="543.874" cy="670.434" r="2.851" fill="#00A76F"/><circle cx="534.368" cy="670.434" r="2.851" fill="#FFDF00"/><circle cx="688.349" cy="682.79" r="7.604" fill="#fff"/><rect width="45.789" height="45.789" rx="1.826" transform="matrix(-1 0 0 1 445.728 560.487)" fill="#12736E"/><path opacity=".1" fill-rule="evenodd" clip-rule="evenodd" d="M408.84 560.487c2.702 18.1 18.129 32.042 36.888 32.434v-30.608a1.827 1.827 0 0 0-1.826-1.826H408.84z" fill="#fff"/><rect width="33.301" height="33.301" rx="14.152" transform="matrix(-1 0 0 1 439.485 566.731)" fill="#3A3A3A"/><rect width="6.244" height="6.244" rx="3.122" transform="matrix(-1 0 0 1 431.158 580.26)" fill="#000"/><rect width="6.244" height="6.244" rx="3.122" transform="matrix(-1 0 0 1 420.752 580.26)" fill="#000"/><path fill-rule="evenodd" clip-rule="evenodd" d="M514.411 626.855h-84.9c-8.128 0-14.717 6.589-14.717 14.717 0 8.127 6.589 14.716 14.717 14.716h50.558c7.151 0 12.947 5.797 12.947 12.948 0 7.15-5.796 12.947-12.947 12.947h-68.683v-3h68.683c5.494 0 9.947-4.454 9.947-9.947 0-5.494-4.453-9.948-9.947-9.948h-50.558c-9.785 0-17.717-7.932-17.717-17.716 0-9.785 7.932-17.717 17.717-17.717h84.9v3z" fill="#3A3A3A"/><path d="M396.125 673.051h-9.54a1.909 1.909 0 0 0 0 3.816h9.54v-3.816zM396.125 684.498h-9.54a1.909 1.909 0 0 0 0 3.816h9.54v-3.816z" fill="#3A3A3A"/><path d="M420.927 677.358a7.26 7.26 0 0 0-7.26-7.26h-13.182v20.777h13.182a7.26 7.26 0 0 0 7.26-7.26v-6.257z" fill="#12736E"/><rect width="5.724" height="26.71" rx=".726" transform="matrix(-1 0 0 1 401.848 667.328)" fill="#12736E"/><rect width="1.901" height="11.406" rx=".95" transform="matrix(-1 0 0 1 390.4 644.433)" fill="#737EF2"/><rect width="1.901" height="11.406" rx=".95" transform="matrix(0 -1 -1 0 381.846 664.394)" fill="#737EF2"/><rect width="1.901" height="11.406" rx=".95" transform="scale(1 -1) rotate(45 986.67 133.45)" fill="#737EF2"/><rect width="1.901" height="11.406" rx=".95" transform="matrix(1 0 0 -1 402.874 719.722)" fill="#737EF2"/><rect width="1.901" height="11.406" rx=".95" transform="matrix(0 1 1 0 411.428 699.761)" fill="#737EF2"/><rect width="1.901" height="11.406" rx=".95" transform="scale(-1 1) rotate(45 -1056.646 -142.037)" fill="#737EF2"/><defs><clipPath id="a"><path fill="#fff" transform="translate(66 368.324)" d="M0 0h196v341H0z"/></clipPath></defs></svg>