<svg width="173" height="168" fill="none" xmlns="http://www.w3.org/2000/svg"><path opacity=".18" d="M52.59 112.855c11.316 4.974 24.114 4.897 36.475 4.733 6.484-.082 13.193-.214 19.097-2.9 8.208-3.738 13.537-11.759 20.738-17.187 8.268-6.244 18.851-8.936 26.867-15.497a34.68 34.68 0 0 0 12.722-26.266 34.686 34.686 0 0 0-11.83-26.68c-4.241-3.71-9.302-6.33-14.32-8.907L117.141 7.182C111.237 4.146 105.18 1.06 98.591.233c-5.559-.695-11.184.268-16.617 1.51-15.486 3.502-30.85 9.538-42.21 20.585-9.773 9.521-16.153 22.31-26.845 30.785-2.736 2.161-5.767 4.071-7.76 6.927-7.167 10.293.094 23.442 9.407 28.717 12.897 7.3 24.503 18.161 38.024 24.098z" fill="#62E6D5"/><path d="M86.28 167.217c47.651 0 86.28-4.772 86.28-10.659 0-5.887-38.629-10.659-86.28-10.659S0 150.671 0 156.558c0 5.887 38.629 10.659 86.28 10.659z" fill="#119088"/><path d="M86.28 167.217c47.651 0 86.28-4.772 86.28-10.659 0-5.887-38.629-10.659-86.28-10.659S0 150.671 0 156.558c0 5.887 38.629 10.659 86.28 10.659z" fill="url(#a)"/><path d="M39.014 52.424a14.445 14.445 0 0 0-11.042-2.19 4.185 4.185 0 0 0-1.904.816c-1.297 1.095-1.095 3.13-1.44 4.804-.42 2.063-1.805 3.83-2.303 5.866a13.214 13.214 0 0 0-.05 4.64 76.47 76.47 0 0 0 4.33 17.74l-6.02 79.293s6.156.995 18.643 1.991l1.324-75.511-1.538-37.45z" fill="#EEA886"/><path d="m32.169 98.666 7.972 32.24v-46.5l-3.545-10.538-4.427 24.798z" fill="url(#b)"/><path d="M136.424 53.102a14.456 14.456 0 0 1 11.042-2.145c.694.11 1.35.39 1.91.815 1.291 1.095 1.094 3.13 1.433 4.81.427 2.063 1.812 3.83 2.31 5.866.29 1.53.305 3.1.043 4.635a76.146 76.146 0 0 1-4.322 17.74l5.991 78.187s-6.703 1.127-18.681 2.259l-1.286-74.68 1.56-37.487z" fill="#EEA886"/><path d="m144.292 96.362-2.828 14.528-6.025 13.105-.531-28.519 9.384.886z" fill="url(#c)"/><path d="M140.068 26.487H33.384a4.58 4.58 0 0 0-4.58 4.58v63.818a4.58 4.58 0 0 0 4.58 4.58h106.684a4.58 4.58 0 0 0 4.58-4.58V31.067a4.58 4.58 0 0 0-4.58-4.58z" fill="#119088"/><path d="M140.068 26.487H33.384a4.58 4.58 0 0 0-4.58 4.58v63.818a4.58 4.58 0 0 0 4.58 4.58h106.684a4.58 4.58 0 0 0 4.58-4.58V31.067a4.58 4.58 0 0 0-4.58-4.58z" fill="url(#d)"/><path d="M140.068 26.487H33.384a4.58 4.58 0 0 0-4.58 4.58v63.818a4.58 4.58 0 0 0 4.58 4.58h106.684a4.58 4.58 0 0 0 4.58-4.58V31.067a4.58 4.58 0 0 0-4.58-4.58z" fill="#052E2E" fill-opacity=".2"/><path d="M140.068 23.56H33.384a4.58 4.58 0 0 0-4.58 4.58v63.818a4.58 4.58 0 0 0 4.58 4.58h106.684a4.58 4.58 0 0 0 4.58-4.58V28.14a4.58 4.58 0 0 0-4.58-4.58z" fill="#17A398"/><path d="M39.063 53.983c1.844-2.046 1.844-2.046 3.93-4.498l8.88-10.396a41.345 41.345 0 0 0 3.83-4.87h8.389a60.132 60.132 0 0 0-.323 6.79v13.302h1.187a28.461 28.461 0 0 0 4.05-.328v7.453a32.357 32.357 0 0 0-4.011-.246h-1.226v2.046c-.038 1.684.07 3.369.323 5.034h-8.427c.229-1.696.336-3.405.323-5.116v-1.976h-11.6c-2.665 0-3.83.039-5.325.16v-7.355zm16.963-4.334c0-1.844.082-4.093.246-5.893a75.072 75.072 0 0 1-2.538 3.354l-5.992 7.284h8.268l.016-4.745zM75.774 65.2a12.946 12.946 0 0 1-2.988-4.541 27.217 27.217 0 0 1-1.597-9.373c0-4.301 1.023-8.755 2.582-11.338 2.495-4.175 6.753-6.468 11.907-6.468 3.973 0 7.453 1.352 9.948 3.83a12.874 12.874 0 0 1 2.987 4.542 27.136 27.136 0 0 1 1.598 9.412c0 4.3-1.023 8.804-2.577 11.381-2.457 4.093-6.758 6.386-11.956 6.386-4.01-.022-7.403-1.336-9.904-3.83zm3.83-14.226c0 7.326 2.085 11.091 6.14 11.091 4.054 0 6.057-3.683 6.057-10.944-.022-7.042-2.167-10.736-6.123-10.736-3.847 0-6.096 3.902-6.096 10.572l.022.017zM102.334 53.983c1.844-2.046 1.844-2.046 3.929-4.498l8.886-10.396a41.177 41.177 0 0 0 3.803-4.87h8.394a58.783 58.783 0 0 0-.328 6.79v13.302h1.187a28.455 28.455 0 0 0 4.049-.328v7.453a32.345 32.345 0 0 0-4.01-.246h-1.226v2.046a28.655 28.655 0 0 0 .328 5.034h-8.432c.231-1.695.34-3.405.328-5.116v-1.976h-11.584c-2.659 0-3.83.039-5.324.16v-7.355zm16.963-4.334c0-1.844.082-4.093.246-5.893a73.95 73.95 0 0 1-2.539 3.354l-5.991 7.284h8.268l.016-4.745zM39.458 80.259c.689-.113 1.386-.168 2.084-.164a3.464 3.464 0 0 1 2.364.7 2.276 2.276 0 0 1 .739 1.762 2.47 2.47 0 0 1-.651 1.8 3.486 3.486 0 0 1-2.578.925 3.523 3.523 0 0 1-.87-.077v3.377h-1.094l.006-8.323zm1.094 4.06c.294.068.596.097.897.087 1.313 0 2.112-.634 2.112-1.8 0-1.165-.788-1.641-1.986-1.641-.343-.01-.687.02-1.023.087v3.267zM46.407 85.933l-.876 2.648h-1.094l2.856-8.42h1.302l2.873 8.42h-1.16l-.897-2.648h-3.004zm2.736-.848-.827-2.424c-.186-.547-.312-1.05-.437-1.538a24.45 24.45 0 0 1-.422 1.522l-.826 2.44h2.512zM58.926 88.204a7.83 7.83 0 0 1-2.588.465 3.956 3.956 0 0 1-4.323-4.251c0-2.512 1.735-4.345 4.558-4.345a5.188 5.188 0 0 1 2.102.388l-.263.887a4.322 4.322 0 0 0-1.86-.361c-2.053 0-3.388 1.275-3.388 3.381 0 2.107 1.286 3.404 3.25 3.404.495.026.989-.053 1.45-.23v-2.506h-1.712v-.876h2.774v4.044zM64.945 84.63h-3.283v3.038h3.65v.913h-4.739v-8.42h4.553v.913h-3.453v2.66h3.283l-.01.897zM69.388 88.582V80.16h1.188l2.697 4.258c.562.879 1.069 1.793 1.516 2.735-.098-1.094-.126-2.145-.126-3.458v-3.524h1.029v8.421h-1.094l-2.676-4.273a27.14 27.14 0 0 1-1.576-2.813h-.038c.065 1.067.087 2.08.087 3.475v3.6h-1.007zM84.803 84.28c0 2.9-1.762 4.438-3.913 4.438-2.15 0-3.786-1.723-3.786-4.273 0-2.676 1.641-4.421 3.912-4.421 2.27 0 3.787 1.761 3.787 4.257zm-6.534.138c0 1.8.974 3.414 2.687 3.414 1.713 0 2.697-1.587 2.697-3.502 0-1.669-.875-3.42-2.686-3.42s-2.698 1.663-2.698 3.508zM87.5 81.085h-2.56v-.925h6.237v.925H88.6v7.497h-1.094l-.006-7.497zM94.761 80.16h4.537v.914H95.85v2.796h3.185v.898H95.85v3.83h-1.094l.005-8.438zM108.042 84.28c0 2.9-1.762 4.438-3.907 4.438-2.227 0-3.787-1.723-3.787-4.273 0-2.676 1.642-4.421 3.907-4.421s3.787 1.761 3.787 4.257zm-6.534.138c0 1.8.974 3.414 2.687 3.414 1.712 0 2.697-1.587 2.697-3.502 0-1.669-.875-3.42-2.686-3.42s-2.698 1.663-2.698 3.508zM110.542 80.16v4.985c0 1.888.837 2.687 1.965 2.687 1.247 0 2.046-.826 2.046-2.687V80.16h1.094v4.925c0 2.588-1.362 3.65-3.184 3.65-1.724 0-3.026-.985-3.026-3.6v-4.958l1.105-.017zM117.541 88.582V80.16h1.187l2.698 4.258a24.136 24.136 0 0 1 1.51 2.735h.027c-.098-1.094-.126-2.145-.126-3.458v-3.524h1.024v8.421h-1.095l-2.67-4.273a26.101 26.101 0 0 1-1.576-2.813h-.038c.06 1.067.087 2.08.087 3.475v3.6h-1.028zM125.748 80.27c.767-.115 1.54-.174 2.315-.175 1.559 0 2.676.366 3.409 1.05a3.88 3.88 0 0 1 1.187 3.026 4.443 4.443 0 0 1-1.209 3.283c-.788.788-2.09 1.215-3.726 1.215a16.848 16.848 0 0 1-1.976-.131V80.27zm1.095 7.447c.362.054.728.076 1.094.066 2.326 0 3.584-1.303 3.584-3.573 0-1.987-1.094-3.25-3.409-3.25a5.908 5.908 0 0 0-1.275.114l.006 6.643z" fill="#fff"/><path d="M33.712 51.466c.47.234.87.587 1.16 1.023a3.66 3.66 0 0 1 .345 1.642l.164 3.53c.074.58.005 1.17-.203 1.717a1.242 1.242 0 0 1-1.411.745 5.304 5.304 0 0 1-.454 4.153c-.177.263-.316.55-.41.853-.046.365-.028.736.054 1.095a6.286 6.286 0 0 1-1.461 4.974 2.227 2.227 0 0 1-.646.547 2.737 2.737 0 0 1-1.029.219l-1.608.136a.548.548 0 0 1-.717-.487 35.906 35.906 0 0 1-1.641-11.989c.063-2.045.308-4.082.733-6.084.257-1.171.76-2.955 2.013-3.431 1.62-.57 3.71.553 5.111 1.357zM139.384 51.466a3.006 3.006 0 0 0-1.16 1.023 3.675 3.675 0 0 0-.345 1.642l-.164 3.53a3.58 3.58 0 0 0 .203 1.717 1.24 1.24 0 0 0 1.412.745 5.32 5.32 0 0 0 .448 4.153c.181.262.321.55.416.853.046.366.026.736-.06 1.095a6.304 6.304 0 0 0 1.466 4.974c.179.222.398.407.646.547.326.138.675.213 1.029.218l1.625.16a.548.548 0 0 0 .717-.488 35.918 35.918 0 0 0 1.641-11.989 33.946 33.946 0 0 0-.739-6.084c-.251-1.171-.547-2.638-1.789-3.114-1.636-.596-3.945.214-5.346 1.018z" fill="#EEA886"/><defs><linearGradient id="a" x1="85.755" y1="141.724" x2="87.347" y2="186.889" gradientUnits="userSpaceOnUse"><stop stop-opacity="0"/><stop offset=".95"/></linearGradient><linearGradient id="b" x1="37.044" y1="126.748" x2="35.452" y2="63.778" gradientUnits="userSpaceOnUse"><stop stop-opacity="0"/><stop offset=".99"/></linearGradient><linearGradient id="c" x1="140.079" y1="118.069" x2="139.018" y2="78.568" gradientUnits="userSpaceOnUse"><stop stop-opacity="0"/><stop offset=".95"/></linearGradient><linearGradient id="d" x1="84.775" y1="130.479" x2="87.254" y2="44.747" gradientUnits="userSpaceOnUse"><stop stop-opacity="0"/><stop offset=".99"/></linearGradient></defs></svg>