<svg width="801" height="800" fill="none" xmlns="http://www.w3.org/2000/svg"><path fill="#fff" d="M.438 0h800v800h-800z"/><g clip-path="url(#a)"><path d="M350.873 152H97.597C91.745 152 87 156.765 87 162.643v185.714C87 354.235 91.745 359 97.597 359h253.276c5.853 0 10.597-4.765 10.597-10.643V162.643c0-5.878-4.744-10.643-10.597-10.643z" fill="#CDFAF1"/><path d="M128.268 342.895c-13.72 0-24.842-11.285-24.842-25.206s11.122-25.206 24.842-25.206c13.721 0 24.843 11.285 24.843 25.206s-11.122 25.206-24.843 25.206zm.055-25.312a3.321 3.321 0 0 0 3.319-3.324 3.322 3.322 0 0 0-3.319-3.325 3.322 3.322 0 0 0-3.319 3.325 3.321 3.321 0 0 0 3.319 3.324zm0 1.663a6.02 6.02 0 0 0-6.016 6.025h12.032a6.02 6.02 0 0 0-6.016-6.025zM103.426 196.703c0-1.178.945-2.132 2.119-2.132h175.402c1.17 0 2.118.953 2.118 2.132v76.225a2.123 2.123 0 0 1-2.118 2.132H105.545a2.124 2.124 0 0 1-2.119-2.132v-76.225zm66.446 116.291h139.216a3.93 3.93 0 0 1 3.922 3.938v2.126a3.93 3.93 0 0 1-3.922 3.938H169.872a3.93 3.93 0 0 1-3.922-3.938v-2.126a3.93 3.93 0 0 1 3.922-3.938zm0 16.254h164.141a3.93 3.93 0 0 1 3.922 3.938v2.126a3.93 3.93 0 0 1-3.922 3.938H169.872a3.93 3.93 0 0 1-3.922-3.938v-2.126a3.93 3.93 0 0 1 3.922-3.938zm0-32.508h104.321c2.165 0 3.921 1.764 3.921 3.939v2.125c0 2.175-1.756 3.939-3.921 3.939H169.872a3.93 3.93 0 0 1-3.922-3.939v-2.125a3.93 3.93 0 0 1 3.922-3.939zM87 162.645C87 156.766 91.744 152 97.601 152H351.4c5.855 0 10.601 4.766 10.601 10.645v12.769H87v-12.769zM304.292 257.453h32.397c1.818 0 3.39.37 4.685 1.066a7.23 7.23 0 0 1 3.005 3.017c.693 1.301 1.061 2.88 1.061 4.706v.028c0 1.826-.368 3.405-1.061 4.706a7.23 7.23 0 0 1-3.005 3.017c-1.295.696-2.867 1.066-4.685 1.066h-32.397c-1.818 0-3.39-.37-4.685-1.066a7.23 7.23 0 0 1-3.005-3.017c-.693-1.301-1.061-2.88-1.061-4.706v-.028c0-1.826.368-3.405 1.061-4.706a7.23 7.23 0 0 1 3.005-3.017c1.295-.696 2.867-1.066 4.685-1.066z" fill="#62E6D5"/><path d="M102.63 169.028c2.78 0 5.034-2.263 5.034-5.055s-2.254-5.056-5.034-5.056-5.033 2.264-5.033 5.056c0 2.792 2.253 5.055 5.033 5.055z" fill="#F74930"/><path d="M119.056 169.028c2.78 0 5.034-2.263 5.034-5.055s-2.254-5.056-5.034-5.056-5.033 2.264-5.033 5.056c0 2.792 2.253 5.055 5.033 5.055z" fill="#FFDF00"/><path d="M136.013 169.028c2.78 0 5.034-2.263 5.034-5.055s-2.254-5.056-5.034-5.056-5.034 2.264-5.034 5.056c0 2.792 2.254 5.055 5.034 5.055z" fill="#00A76F"/></g><path d="M688.761 445.237H479.149c-8.231 0-14.953-6.077-14.953-13.518V306.894c0-7.441 6.722-13.518 14.953-13.518h209.612c8.231 0 14.953 6.077 14.953 13.518v124.763c0 7.503-6.722 13.58-14.953 13.58z" fill="#CDFAF1"/><path d="M464.265 292.558c0-7.558 6.143-13.684 13.719-13.684h211.942c7.577 0 13.719 6.13 13.719 13.684v15.73h-239.38v-15.73zM501.132 363.697h26.408a3.939 3.939 0 0 1 3.944 3.933 3.939 3.939 0 0 1-3.944 3.934h-26.408a3.939 3.939 0 0 1-3.944-3.934 3.939 3.939 0 0 1 3.944-3.933zm0 43.78h26.408a3.939 3.939 0 0 1 3.944 3.933 3.939 3.939 0 0 1-3.944 3.933h-26.408a3.939 3.939 0 0 1-3.944-3.933 3.939 3.939 0 0 1 3.944-3.933zm40.469-43.78h26.407a3.939 3.939 0 0 1 3.944 3.933 3.939 3.939 0 0 1-3.944 3.934h-26.407a3.939 3.939 0 0 1-3.944-3.934 3.939 3.939 0 0 1 3.944-3.933zm0 43.78h26.407a3.939 3.939 0 0 1 3.944 3.933 3.939 3.939 0 0 1-3.944 3.933h-26.407a3.939 3.939 0 0 1-3.944-3.933 3.939 3.939 0 0 1 3.944-3.933zm40.468-43.78h26.407a3.939 3.939 0 0 1 3.944 3.933 3.939 3.939 0 0 1-3.944 3.934h-26.407a3.939 3.939 0 0 1-3.944-3.934 3.939 3.939 0 0 1 3.944-3.933zm0 43.78h26.407a3.939 3.939 0 0 1 3.944 3.933 3.939 3.939 0 0 1-3.944 3.933h-26.407a3.939 3.939 0 0 1-3.944-3.933 3.939 3.939 0 0 1 3.944-3.933zm-80.937-65.67h49.043a3.938 3.938 0 0 1 3.943 3.933 3.938 3.938 0 0 1-3.943 3.934h-49.043a3.939 3.939 0 0 1-3.944-3.934 3.939 3.939 0 0 1 3.944-3.933zm111.117 0h55.215a3.939 3.939 0 0 1 3.944 3.933 3.939 3.939 0 0 1-3.944 3.934h-55.215a3.939 3.939 0 0 1-3.944-3.934 3.939 3.939 0 0 1 3.944-3.933zm0 43.78h55.215a3.939 3.939 0 0 1 3.944 3.933 3.939 3.939 0 0 1-3.944 3.933h-55.215a3.939 3.939 0 0 1-3.944-3.933 3.939 3.939 0 0 1 3.944-3.933zm-48.013 0h9.945a3.939 3.939 0 0 1 3.944 3.933 3.939 3.939 0 0 1-3.944 3.933h-9.945a3.938 3.938 0 0 1-3.944-3.933 3.938 3.938 0 0 1 3.944-3.933zm24.006-43.78h9.946a3.939 3.939 0 0 1 3.944 3.933 3.939 3.939 0 0 1-3.944 3.934h-9.946a3.939 3.939 0 0 1-3.944-3.934 3.939 3.939 0 0 1 3.944-3.933zm34.295 21.89h44.927a3.939 3.939 0 0 1 3.944 3.933 3.939 3.939 0 0 1-3.944 3.934h-44.927a3.939 3.939 0 0 1-3.944-3.934 3.939 3.939 0 0 1 3.944-3.933z" fill="#62E6D5"/><path d="M501.132 385.586h49.043a3.938 3.938 0 0 1 3.943 3.934 3.938 3.938 0 0 1-3.943 3.933h-49.043a3.939 3.939 0 0 1-3.944-3.933 3.939 3.939 0 0 1 3.944-3.934zm87.11 0h9.946a3.939 3.939 0 0 1 3.944 3.934 3.939 3.939 0 0 1-3.944 3.933h-9.946a3.939 3.939 0 0 1-3.944-3.933 3.939 3.939 0 0 1 3.944-3.934z" fill="#737EF2"/><path d="M564.235 341.807h9.946a3.939 3.939 0 0 1 3.944 3.933 3.939 3.939 0 0 1-3.944 3.934h-9.946a3.938 3.938 0 0 1-3.943-3.934 3.938 3.938 0 0 1 3.943-3.933zm58.302 65.669h44.927a3.939 3.939 0 0 1 3.944 3.934 3.939 3.939 0 0 1-3.944 3.933h-44.927a3.939 3.939 0 0 1-3.944-3.933 3.939 3.939 0 0 1 3.944-3.934zM689.015 351.893l-35.214-23.167c-.47.335-.47.335-.893.717l13.164 40.459s5.172-.717 9.168-3.01l5.97 7.834c2.362-1.341 4.031-2.394 5.006-3.16.975-.765 2.206-1.989 3.692-3.671l-5.971-7.881c1.693-2.723 3.385-5.446 5.078-8.121z" fill="#FFDF00"/><path d="M496.26 602.67h42.667c1.294 0 2.427-1.15 2.427-2.529v-.288a2.541 2.541 0 0 0-2.535-2.528h-148.01c-1.294 0-2.427 1.149-2.427 2.528v.288c0 1.379 1.079 2.529 2.427 2.529h52.052l-14.348 28.047a31418.822 31418.822 0 0 1-30.638 59.946l-16.883 32.99c-.593 1.149-.108 2.644 1.025 3.333l.216.115c1.132.632 2.589.288 3.128-.804l63.163-123.627h42.073l63.163 123.627c.539 1.092 1.996 1.494 3.129.804l.215-.115c1.133-.689 1.618-2.184 1.025-3.333l-16.883-32.99a30847.571 30847.571 0 0 0-30.638-59.946L496.26 602.67zm44.932-22.523V440.018c0-4.762-3.622-8.621-8.091-8.621h-88.029c-4.468 0-8.091 3.859-8.091 8.621v140.228c0 4.761 3.623 8.621 8.091 8.621h.009l88.029-.099c4.465-.005 8.082-3.863 8.082-8.621z" fill="#8C837C"/><path d="M396.545 577.539c10.271-.37 18.38-8.999 18.112-19.274a18.387 18.387 0 0 0-19.082-17.933l-76.686 2.762c-10.271.37-18.38 8.999-18.112 19.274a18.387 18.387 0 0 0 19.082 17.933l76.686-2.762z" fill="#3A3A3A"/><path d="M415.1 558.249c.275 10.519-8.028 19.354-18.544 19.732l-76.685 2.763a18.825 18.825 0 0 1-19.537-18.36c-.275-10.519 8.028-19.354 18.543-19.733l76.686-2.762a18.825 18.825 0 0 1 19.537 18.36z" stroke="#3A3A3A" stroke-width=".886"/><path d="M374.53 694.916c-4.469-8.22-1.428-18.506 6.792-22.975 8.069-4.387 18.164-1.546 22.76 6.405l11.338 19.616c6.138 10.619-.466 24.071-12.622 25.709a17.237 17.237 0 0 1-17.446-8.85l-10.822-19.905z" fill="#FDBA90" stroke="#FDBA90" stroke-width=".886"/><path d="M423.486 704.971a3.545 3.545 0 0 0-3.197-2.064l-44.297-.305a3.544 3.544 0 0 0-3.152 1.876l-4.43 8.302a3.54 3.54 0 0 1-1.235 1.328l-14.122 8.916c-2.995 1.891-1.671 6.52 1.871 6.542l74.516.452c2.594.016 4.326-2.668 3.243-5.024l-9.197-20.023z" fill="#662D03"/><path d="M338.765 553.975c-5.311-9.591-17.374-13.088-26.992-7.825-9.544 5.223-13.133 17.138-8.061 26.763l62.378 118.383h48.724l-76.049-137.321z" fill="#3A3A3A"/><path d="M366.09 691.739h-.268l-.124-.236L303.32 573.12c-5.184-9.84-1.516-22.019 8.241-27.358 9.831-5.381 22.162-1.806 27.592 7.998l76.048 137.322.365.657H366.09z" stroke="#3A3A3A" stroke-width=".886"/><path d="M304.881 570.932c-5.42-8.443-2.97-19.681 5.473-25.102 8.443-5.421 19.681-2.971 25.102 5.472 5.42 8.443 2.97 19.682-5.473 25.102-8.443 5.421-19.681 2.971-25.102-5.472z" fill="#3A3A3A" stroke="#3A3A3A" stroke-width=".886"/><path d="M453.388 539.29c15.4-1.666 28.935 10.49 28.935 25.984 0 14.787-11.76 26.781-26.551 27.08l-81.522 1.649c-12.584.254-23.13-9.661-23.651-22.236a22.69 22.69 0 0 1 20.263-23.55l82.526-8.927z" fill="#3A3A3A"/><path d="M482.766 565.279c0-15.76-13.767-28.123-29.43-26.429l-82.526 8.926c-12.159 1.315-21.16 11.777-20.654 24.005.531 12.818 11.281 22.924 24.108 22.664l81.521-1.648c15.031-.304 26.982-12.492 26.981-27.518z" stroke="#3A3A3A" stroke-width=".886"/><path d="m286.058 725.357 20.979-40.22-31.418-11.697-28.445 40.322 38.884 11.595z" fill="#FDBA90" stroke="#FDBA90" stroke-width=".886"/><path d="M302.716 705.106c.954-2.329-.756-4.883-3.274-4.888l-49.938-.097a3.545 3.545 0 0 0-1.506.333l-22.216 10.374c-.189.088-.37.193-.54.313l-16.502 11.617c-2.826 1.991-1.423 6.437 2.034 6.444l79.621.153a3.545 3.545 0 0 0 3.287-2.2l9.034-22.049z" fill="#662D03"/><path d="M348.693 561.737c7.181-9.738 20.872-11.862 30.665-4.756 10.041 7.285 12.088 21.423 4.525 31.257l-79.416 103.265h-51.462l95.688-129.766z" fill="#3A3A3A"/><path d="M348.693 561.737c7.181-9.738 20.872-11.862 30.665-4.756 10.041 7.285 12.088 21.423 4.525 31.257l-79.416 103.265h-51.462l95.688-129.766z" stroke="#3A3A3A" stroke-width=".886"/><path d="M380.468 580.557c6.446-7.688 5.439-19.146-2.25-25.592-7.689-6.446-19.147-5.439-25.593 2.25-6.446 7.688-5.438 19.147 2.25 25.593 7.689 6.446 19.147 5.438 25.593-2.251z" fill="#3A3A3A" stroke="#3A3A3A" stroke-width=".886"/><path d="M380.587 505.337c0-11.746 9.523-21.268 21.269-21.268h43.027c11.746 0 21.268 9.522 21.268 21.268v61.382h-85.564v-61.382z" fill="#3A3A3A"/><path d="M466.151 567.162h.443V505.337c0-11.99-9.721-21.711-21.711-21.711h-43.027c-11.991 0-21.712 9.721-21.712 21.711V567.162H466.151z" stroke="#3A3A3A" stroke-width=".886"/><path d="m368.472 426.276 15.154 111.174H466.3l17.064-114.184a5.317 5.317 0 0 0-4.303-6.016l-52.856-9.661a5.317 5.317 0 0 0-2.232.069l-51.509 12.739a5.316 5.316 0 0 0-3.992 5.879z" fill="#12736E"/><path d="m383.187 537.509.052.384H466.682l.056-.378 17.064-114.184a5.76 5.76 0 0 0-4.661-6.517l-52.856-9.661a5.765 5.765 0 0 0-2.418.075l-51.509 12.738a5.76 5.76 0 0 0-4.325 6.37l15.154 111.173z" stroke="#12736E" stroke-width=".886"/><path d="M380.882 420.938c7.88 4.009 11.194 13.676 7.402 21.594-3.793 7.917-13.256 11.086-21.136 7.078l-59.313-30.168c-7.881-4.008-11.195-13.676-7.403-21.593 3.793-7.917 13.256-11.086 21.137-7.078l59.313 30.167z" fill="#FDBA90"/><path d="M380.691 421.337c7.662 3.897 10.884 13.296 7.197 20.993-3.688 7.697-12.888 10.778-20.55 6.881l-59.312-30.167c-7.662-3.897-10.884-13.296-7.197-20.993 3.687-7.698 12.887-10.779 20.549-6.882l59.313 30.168z" stroke="#FDBA90" stroke-width=".886"/><mask id="b" style="mask-type:alpha" maskUnits="userSpaceOnUse" x="298" y="389" width="92" height="63"><path d="M380.691 421.336c7.661 3.897 10.883 13.296 7.196 20.994-3.687 7.697-12.887 10.778-20.549 6.881l-59.313-30.167c-7.662-3.897-10.884-13.296-7.197-20.994 3.688-7.697 12.888-10.778 20.55-6.881l59.313 30.167z" fill="#F8DAC3" stroke="#F8DAC3" stroke-width=".886"/></mask><g mask="url(#b)"><path d="M390.904 443.477c4.245-8.781.864-19.315-7.551-23.528l-37.431-19.006-11.841 33.277 33.9 17.53c8.415 4.212 18.678.509 22.923-8.273z" fill="#ED9D63"/></g><path d="m385.467 419.821-.006-.003-35.497-17.097-.399-.192-.186.399-14.616 31.194-.184.392.389.198 34.739 17.704.003.001c9.004 4.508 19.829.865 24.18-8.136 4.352-9.001.58-19.952-8.423-24.46z" fill="#12736E" stroke="#12736E" stroke-width=".886"/><path d="m362.002 343.917 19.778 25.85-55.41 42.774c-6.352 4.904-15.445 3.607-20.434-2.915-4.99-6.521-4.035-15.86 2.147-20.987l53.919-44.722z" fill="#FDBA90"/><path d="m308.335 388.958 53.608-44.464 19.275 25.193-55.09 42.527c-6.18 4.771-15.027 3.509-19.882-2.836-4.855-6.345-3.925-15.432 2.089-20.42z" stroke="#FDBA90" stroke-width=".805"/><circle cx="15.046" cy="15.046" r="14.643" transform="matrix(-.7021 -.722 .68628 -.71777 314.65 424.472)" fill="#FDBA90" stroke="#FDBA90" stroke-width=".805"/><path d="M354.717 348.625c-4.825 7.784-3.977 14.573 3.514 21.694 7.49 7.121 13.997 6.848 23.667-.135 7.115-5.139 15.96-12.489 17.761-17.998.724-2.213.509-5.14-1.306-6.015s-3.112.828-4.377 2.922c-1.431 2.367-3.889 5.087-5.88 4.08-1.175-.594-1.587-3.145-.708-4.747 1.441-2.629 3.001-4.531 5.159-6.785a174.81 174.81 0 0 1 4.978-4.981l.392-.374c1.765-1.807 1.681-4.053.406-5.48-2.448-2.738-4.945-.483-5.288-.148.432-.433.776-.772 1.012-1.004l.276-.27c1.334-1.285 1.228-3.062.013-4.428-1.214-1.367-3.152-1.311-4.22-.696-1.068.615-2.344 1.845-2.344 1.845-2.113-3.129-4.971-2.875-6.367-1.948-1.397.928-2.961 2.373-4.911 4.483-.293.316-.491.537-.743.818a3.193 3.193 0 0 0-.784-1.565c-1.148-1.255-2.671-.937-4.033.097-1.362 1.034-5.603 5.257-7.825 8.229-2.222 2.972-3.568 4.623-8.392 12.406z" fill="#FDBA90"/><path d="M375.751 329.458a3.193 3.193 0 0 0-.784-1.565c-1.148-1.255-2.671-.937-4.033.097-1.362 1.034-5.603 5.257-7.825 8.229-2.222 2.972-3.568 4.623-8.392 12.406-4.825 7.784-3.977 14.573 3.514 21.694 7.49 7.121 13.997 6.848 23.667-.135 7.115-5.139 15.96-12.489 17.761-17.998.724-2.213.509-5.14-1.306-6.015s-3.112.828-4.377 2.922c-1.43 2.367-3.889 5.087-5.88 4.08-1.175-.594-1.587-3.145-.708-4.747 1.441-2.629 3.001-4.531 5.159-6.785a174.81 174.81 0 0 1 4.978-4.981l.392-.374c1.765-1.807 1.681-4.053.406-5.48-2.635-2.948-5.327-.108-5.327-.108m-17.245-1.24c.252-.281.45-.502.743-.818 1.95-2.11 3.514-3.555 4.911-4.483 1.396-.927 4.254-1.181 6.367 1.948m-12.021 3.353c-2.054 2.232-5.67 6.349-6.422 7.596m18.443-10.949s-3.426 3.251-3.861 3.686m3.861-3.686s-2.349 2.265-3.861 3.686m3.861-3.686s1.276-1.23 2.344-1.845c1.068-.615 3.006-.671 4.22.696 1.215 1.366 1.321 3.143-.013 4.428l-.276.27c-.244.239-.601.592-1.051 1.044m-9.085-.907c-2.946 2.998-4.833 5.121-7.501 8.383m16.586-7.476c-.902.904-2.174 2.203-3.649 3.769 0 0-4.527 4.91-6.907 7.784m10.556-11.553s-.358.367-.502.506c-.29.277-.616.65-1.127 1.15-1.02.999-3.899 4.136-3.899 4.136" stroke="#FDBA90" stroke-width=".805" stroke-linecap="round" stroke-linejoin="round"/><path d="M375.377 329.197c-2.022 1.895-6.027 6.04-5.871 7.457m17.583-9.927c-3.498 2.897-10.718 9.517-11.612 12.827m4.873 5.276c2.142-3.102 7.832-10.368 13.453-14.62" stroke="#ED9D63" stroke-width=".805" stroke-linecap="round" stroke-linejoin="round"/><path d="m369.539 444.801 11.477 84.749" stroke="#fff" stroke-width=".886" stroke-linecap="round" stroke-linejoin="round"/><path d="M491.326 435.01c-2.058-8.567-10.686-13.916-19.272-11.948a15.753 15.753 0 0 0-11.821 19.075l15.486 64.478c2.057 8.567 10.685 13.916 19.271 11.948a15.752 15.752 0 0 0 11.821-19.075l-15.485-64.478z" fill="#FDBA90"/><path d="M490.894 435.109c-2-8.329-10.389-13.53-18.736-11.616a15.315 15.315 0 0 0-11.493 18.545l15.486 64.478c2 8.329 10.388 13.53 18.736 11.616a15.314 15.314 0 0 0 11.492-18.545l-15.485-64.478z" stroke="#FDBA90" stroke-width=".886"/><mask id="c" style="mask-type:alpha" maskUnits="userSpaceOnUse" x="459" y="422" width="49" height="97"><path d="M490.893 435.109c-2-8.329-10.389-13.529-18.736-11.616a15.314 15.314 0 0 0-11.492 18.545l15.485 64.478c2 8.329 10.389 13.53 18.736 11.617a15.316 15.316 0 0 0 11.493-18.546l-15.486-64.478z" fill="#F8DAC3" stroke="#F8DAC3" stroke-width=".886"/></mask><g mask="url(#c)"><path d="M471.739 421.185c9.533-2.221 19.064 3.708 21.289 13.241l9.486 36.064-36.292 7.328-7.713-35.351c-2.225-9.534 3.698-19.062 13.23-21.282z" fill="#ED9D63"/></g><path d="M493.482 430.776c-2.283-9.769-12.051-15.843-21.82-13.568-9.77 2.276-15.841 12.042-13.561 21.813l35.381-8.245zm0 0 8.852 34.449.108.42-.417.116-35.009 9.804-.447.126-.105-.453-8.363-36.216 35.381-8.246z" fill="#12736E" stroke="#12736E" stroke-width=".886"/><path d="m410.348 509.634 1.895 30.451 79.99-8.514c7.471-.795 12.894-7.551 12.056-15.02a13.366 13.366 0 0 0-14.128-11.872l-79.813 4.955z" fill="#FDBA90"/><path d="m490.186 505.122-79.368 4.927 1.838 29.546 79.533-8.465c7.226-.769 12.471-7.303 11.66-14.527a12.927 12.927 0 0 0-13.663-11.481z" stroke="#FDBA90" stroke-width=".886"/><circle cx="16.569" cy="16.569" r="16.126" transform="matrix(.03812 -.99926 -.99918 -.041 508.338 532.293)" fill="#FDBA90" stroke="#FDBA90" stroke-width=".886"/><path d="M409.616 510.289c7.704-.039 10.005 3.997 11.003 10.098.998 6.1-.465 14.396-8.898 17.239-9.036 3.047-28.853-.199-34.847-.774-2.409-.231-5.83-.854-5.322-2.134-.893.345-7.416-.527-7.416-.527-3.205.038-5.46-.983-5.802-2.117-.614-2.04 3.07-2.539 4.033-2.634-.709.007-1.692-.408-1.692-.408-2.033.383-3.177-1.041-3.509-2.124-.331-1.082.601-2.233 1.873-2.659 1.272-.427 2.691-.556 2.691-.556-1.225-2.101.98-3.643 2.749-4.165 1.769-.521 4.101-.989 7.273-1.481.424-.066.731-.111 1.087-.164l.133-.02c-.411-.224-1.113.249-1.215-.118-.283-1.012 1.736-2.081 3.573-2.553 1.837-.471 13.714-4.422 17.817-4.819 4.103-.397 8.766-.045 16.469-.084z" fill="#FDBA90"/><path d="M372.972 517.863c-.411-.224-1.113.249-1.215-.118-.283-1.012 1.736-2.081 3.573-2.553 1.837-.471 13.714-4.422 17.817-4.819 4.103-.397 8.766-.045 16.469-.084 7.704-.039 10.005 3.997 11.003 10.098.998 6.1-.465 14.396-8.898 17.239-9.036 3.047-28.853-.199-34.847-.774-2.409-.231-5.83-.854-5.322-2.134-.893.345-7.416-.527-7.416-.527-3.205.038-5.46-.983-5.802-2.117-.705-2.343 4.26-2.653 4.26-2.653m10.378-11.558c-.416.062-.744.11-1.22.184-3.172.492-5.504.96-7.273 1.481-1.769.522-3.974 2.064-2.749 4.165m11.242-5.83c3.349-.516 9.408-1.37 11.004-1.435m-22.246 7.265s5.18-.998 5.857-1.118m-5.857 1.118s3.582-.673 5.857-1.118m-5.857 1.118s-1.419.129-2.691.556c-1.272.426-2.204 1.577-1.873 2.659.332 1.083 1.476 2.507 3.509 2.124 0 0 1.216.513 1.919.389m4.993-6.846c4.629-.799 7.768-1.252 12.431-1.817m-17.424 8.663c1.405-.248 3.407-.592 5.78-.974 0 0 7.374-1.14 11.502-1.654m-17.282 2.628s.564-.096.784-.138c.44-.083.988-.16 1.773-.304 1.569-.288 6.271-1.009 6.271-1.009" stroke="#FDBA90" stroke-width=".886" stroke-linecap="round" stroke-linejoin="round"/><path d="M396.338 509.604c11.837-.989 18.379 1.84 24.498 3.369M362.053 529.787c4.397-.871 15.266-2.297 21.41-2.11M363.383 523.662c5.018-1.906 17.022-3.65 24.011-2.943" stroke="#ED9D63" stroke-width=".886" stroke-linecap="round" stroke-linejoin="round"/><path d="M409.08 395.938c0-7.849 6.363-14.212 14.212-14.212 7.85 0 14.213 6.363 14.213 14.212v13.441c0 7.849-6.363 14.212-14.213 14.212-7.849 0-14.212-6.363-14.212-14.212v-13.441z" fill="#FDBA90"/><path d="M409.523 395.938c0-7.604 6.165-13.769 13.769-13.769 7.605 0 13.77 6.165 13.77 13.769v13.441c0 7.604-6.165 13.769-13.77 13.769-7.604 0-13.769-6.165-13.769-13.769v-13.441z" stroke="#FDBA90" stroke-width=".886"/><mask id="d" style="mask-type:alpha" maskUnits="userSpaceOnUse" x="409" y="384" width="29" height="43"><path d="M409.522 398.597c0-7.605 6.165-13.769 13.77-13.769 7.604 0 13.769 6.164 13.769 13.769v13.44c0 7.605-6.165 13.77-13.769 13.77-7.605 0-13.77-6.165-13.77-13.77v-13.44z" fill="#F8DAC3" stroke="#F8DAC3" stroke-width=".886"/></mask><g mask="url(#d)"><path d="M390.451 342.003c0-15.928 12.912-28.84 28.84-28.84 15.927 0 28.839 12.912 28.839 28.84v32.383c0 15.928-12.912 28.839-28.839 28.839-15.928 0-28.84-12.911-28.84-28.839v-32.383z" fill="#ED9D63"/></g><path d="M380.187 343.067c.044.271.096.538.159.804.332 1.366.866 2.68 1.586 3.902l.038.064c.273.459.566.919.882 1.379a34.524 34.524 0 0 0 2.741 3.377l.59.63c.397.427.8.845 1.203 1.259-2.133-.46-4.199 1.447-4.577 3.506-.379 2.059.479 4.136 1.538 5.974 1.855 3.253 4.529 5.418 6.882 8.244 1.764 2.104 2.741 4.595 4.663 6.608l.144.151c5.075 5.11 13.088 6.305 19.759 8.488 2.396.79 13.26 13.778 26.631 8.852 2.978-1.097 4.293-2.198 7.5-5.144 11.501-10.472 15.528-29.446 8.685-43.324-7.356-14.935-23.043-26.634-34.387-28.376-11.345-1.741-16.452-2.215-21.168 0-4.715 2.215-7.063 9.085-3.153 12.44-2.459-1.785-5.519-2.637-8.593-2.395-2.839.171-5.516 1.326-7.533 3.249a12.299 12.299 0 0 0-3.331 5.551 11.02 11.02 0 0 0-.259 4.761z" fill="#934103"/><path d="M442.487 369.82a7.533 7.533 0 1 1 15.065.001 7.533 7.533 0 0 1-15.065-.001zM389.033 369.82a7.533 7.533 0 1 1 15.065.001 7.533 7.533 0 0 1-15.065-.001z" fill="#FDBA90" stroke="#FDBA90" stroke-width=".886"/><path d="M392.865 367.244c.732.679 2.165 2.361 2.035 3.664M453.843 367.622c-1.273 0-2.165 2.36-2.035 3.663" stroke="#662D03" stroke-width=".886" stroke-linecap="round" stroke-linejoin="round"/><path d="M397.418 353.522c0-17.856 17.66-30.345 34.496-24.395a25.873 25.873 0 0 1 17.252 24.395v22.304c0 14.29-11.584 25.874-25.874 25.874s-25.874-11.584-25.874-25.874v-22.304z" fill="#FDBA90"/><path d="M397.861 353.522c0-17.551 17.358-29.826 33.906-23.977a25.43 25.43 0 0 1 16.956 23.977v22.304c0 14.045-11.385 25.431-25.431 25.431-14.045 0-25.431-11.386-25.431-25.431v-22.304z" stroke="#FDBA90" stroke-width=".886"/><mask id="e" style="mask-type:alpha" maskUnits="userSpaceOnUse" x="365" y="303" width="98" height="71"><path d="M397.343 361.931s-.205-7.977.381-10.249c1.092-4.236 4.684-5.861 5.593-7.132 7.388 8.722 24.475 17.297 38.384 14.048 0 5.138 2.562 14.699 4.888 14.699s3.195-12.142 6.224-11.45c5.974-9.136 17.611-24.099 0-35.184l1.448-2.064 2.615-1.562c-2.15-2.393-10.174-3.506-12.338-.31 0 0-3.777-10.473-20.431-17.668-19.273-8.326-47.684 15.237-47.684 15.237l-10.566 19.917 22.698 29.429s-.346-4.143 4.143-6.819c2.085-1.243 4.645-.892 4.645-.892z" fill="#D9D9D9"/></mask><g mask="url(#e)"><path d="M380.044 341.895c.042.277.095.549.156.822.33 1.396.859 2.738 1.572 3.986l.038.066c.271.469.561.939.874 1.408a35.018 35.018 0 0 0 2.716 3.452l.584.643c.394.437.793.864 1.192 1.286-2.113-.469-4.16 1.479-4.535 3.583s.475 4.226 1.525 6.104c1.837 3.324 4.487 5.536 6.819 8.424 1.747 2.15 2.716 4.695 4.62 6.752l.143.154c5.029 5.222 12.969 6.443 19.579 8.673 2.374.807 28.122 8.038 28.122 9.616 0-.343 2.522-2.817 5.699-5.827 11.397-10.701 15.387-30.088 8.606-44.268-7.289-15.26-21.607-25.73-34.075-28.994-12.467-3.264-16.301-2.263-20.974 0-4.673 2.263-7 9.283-3.125 12.71a12.524 12.524 0 0 0-8.514-2.446 11.674 11.674 0 0 0-7.466 3.32 12.64 12.64 0 0 0-3.3 5.672 11.575 11.575 0 0 0-.256 4.864z" fill="#934103"/><path d="M379.924 341.351c.012.475.004.93.074 1.215.204 1.459.888 3.546 1.192 4.037.305.492 1.1 1.899 1.452 2.39.925 1.269 2.277 2.87 2.277 2.87s1.12 1.273 1.568 1.715c-1.36-.266-3.711 1.749-4.132 3.951-.422 2.203.533 4.425 1.712 6.391 2.065 3.481 5.042 5.796 7.662 8.82 1.963 2.251 3.051 4.916 5.191 7.069 2.483-2.722 4.065-6.044 4.556-9.572.875-6.518 5.813-11.208 6.053-17.806-1.284-5.761-3.871-7.329-6.571-10.687a38.455 38.455 0 0 0-7.469-6.533c-2.177-1.323-4.978-1.529-7.576-1.19-2.264.285-4.571 1.173-5.34 2.205-.485 1.658-.699 3.108-.649 5.125z" fill="#662D03"/></g><path d="M397.64 368.311c0-1.262-.322-10.541-.322-13.065 0-6.55 5.677-10.723 5.677-10.723" stroke="#662D03" stroke-width=".886" stroke-linecap="round" stroke-linejoin="round"/><path d="M428.453 389.278a14.541 14.541 0 0 0-10.161-.694" stroke="#662D03" stroke-width=".886" stroke-linecap="round"/><path d="M419.939 369.88c-2.516 2.664-2.902 11.857-2.902 11.857h4.687" stroke="#662D03" stroke-width=".886" stroke-linecap="round" stroke-linejoin="round"/><path d="M440.175 361.844a39.456 39.456 0 0 1-13.711.388M415.532 361.844a39.456 39.456 0 0 1-13.711.388" stroke="#662D03" stroke-width=".886" stroke-linecap="round"/><path d="M432.476 366.169c-2.973 0-2.973 6.171 0 6.204h.136c2.978 0 2.978-6.171 0-6.204h-.136zM408.555 366.169c-2.973.036-2.973 6.169 0 6.204h.137c2.973 0 2.973-6.168 0-6.204h-.137z" fill="#662D03"/><path d="m396.038 418.577 9.246 23.432 18.19-10.92 17.231 10.92 9.248-28.294" stroke="#FCEFE6" stroke-width=".886" stroke-linecap="round" stroke-linejoin="round"/><path d="m256.871 689.323 96.235-136.716c2.816-4.377 11.582-8.567 22.313-7.582M381.558 594.431l-49.885 68.627" stroke="#fff" stroke-width=".886" stroke-linecap="round" stroke-linejoin="round"/><path d="m460 451 8.351 24L488 468.625" stroke="#FCEFE6" stroke-width=".886" stroke-linecap="round" stroke-linejoin="round"/><path d="M131.984 539.533v193.81c0 2.096-1.853 3.795-4.139 3.795-2.286 0-4.139-1.699-4.139-3.795V536.009c0-1.826 1.407-3.351 3.281-3.713a4.425 4.425 0 0 1 1.745-.353H536.46c2.286 0 4.139 1.699 4.139 3.795s-1.853 3.795-4.139 3.795H131.984z" fill="#8C837C"/><g clip-path="url(#f)"><path d="m233.147 523.366 6.193-24.798h-46.495c-4.83 0-8.824-3.643-8.824-8.053v-70.237c-.064-4.473 3.865-8.116 8.76-8.116h141.502c4.83 0 8.823 3.643 8.823 8.052v70.301c0 4.41-3.993 8.053-8.823 8.053H277.62l-2.556 24.798h16.775c2.577 0 4.573 2.045 4.573 4.538 0 2.556-2.061 4.537-4.573 4.537h-71.813c-2.577 0-4.573-2.045-4.573-4.537-.129-2.493 1.996-4.538 4.573-4.538h13.121z" fill="#3A3A3A"/><path fill-rule="evenodd" clip-rule="evenodd" d="m279.54 480.493.191 42.937h-4.617l4.426-42.937z" fill="#fff"/></g><path d="M366.202 265.444h-65.475c-5.786 0-10.476 4.692-10.476 10.479v33.011c0 5.787 4.69 10.479 10.476 10.479h65.475l11.591 3.607c1.692.527 3.282-1.057 2.762-2.751l-3.877-12.631v-31.715c0-5.787-4.69-10.479-10.476-10.479z" fill="#12736E"/><path d="M313.528 292.358c0 1.05-.164 2.019-.491 2.906a6.44 6.44 0 0 1-1.42 2.286 6.359 6.359 0 0 1-2.222 1.472c-.861.336-1.829.504-2.906.504-1.067 0-2.027-.173-2.88-.517a6.51 6.51 0 0 1-2.221-1.472 6.616 6.616 0 0 1-1.421-2.273c-.318-.879-.477-1.847-.477-2.906 0-1.068.163-2.045.49-2.932a6.398 6.398 0 0 1 1.408-2.273 6.144 6.144 0 0 1 2.221-1.446c.87-.345 1.83-.517 2.88-.517 1.068 0 2.037.172 2.906.517.87.344 1.615.835 2.234 1.472a6.282 6.282 0 0 1 1.408 2.273c.327.878.491 1.847.491 2.906zm-3.539 0c0-1.438-.318-2.557-.955-3.358-.629-.801-1.477-1.201-2.545-1.201-.688 0-1.295.181-1.821.542-.525.353-.929.879-1.214 1.576-.284.697-.426 1.511-.426 2.441 0 .921.138 1.726.414 2.415.284.689.684 1.218 1.201 1.588.525.362 1.14.543 1.846.543 1.068 0 1.916-.401 2.545-1.201.637-.81.955-1.925.955-3.345zm19.527 0c0 1.05-.163 2.019-.49 2.906a6.443 6.443 0 0 1-1.421 2.286 6.355 6.355 0 0 1-2.221 1.472c-.861.336-1.83.504-2.906.504-1.068 0-2.028-.173-2.88-.517a6.504 6.504 0 0 1-2.222-1.472 6.613 6.613 0 0 1-1.42-2.273c-.319-.879-.478-1.847-.478-2.906 0-1.068.164-2.045.491-2.932a6.382 6.382 0 0 1 1.407-2.273 6.148 6.148 0 0 1 2.222-1.446c.869-.345 1.829-.517 2.88-.517 1.067 0 2.036.172 2.906.517a6.322 6.322 0 0 1 2.234 1.472 6.296 6.296 0 0 1 1.408 2.273c.327.878.49 1.847.49 2.906zm-3.538 0c0-1.438-.319-2.557-.956-3.358-.629-.801-1.477-1.201-2.544-1.201-.689 0-1.296.181-1.821.542-.525.353-.93.879-1.214 1.576-.284.697-.426 1.511-.426 2.441 0 .921.137 1.726.413 2.415.284.689.684 1.218 1.201 1.588.525.362 1.141.543 1.847.543 1.067 0 1.915-.401 2.544-1.201.637-.81.956-1.925.956-3.345zm9.582-5.192v.426c.663-.818 1.352-1.416 2.067-1.795.714-.387 1.524-.581 2.428-.581 1.085 0 2.083.28 2.996.839.913.56 1.631 1.378 2.157 2.454.533 1.076.8 2.351.8 3.823 0 1.085-.155 2.084-.465 2.996-.301.904-.718 1.666-1.252 2.286a5.598 5.598 0 0 1-1.899 1.421 5.605 5.605 0 0 1-2.337.491c-1.008 0-1.856-.203-2.544-.607-.681-.405-1.331-.999-1.951-1.783v5.295c0 1.55-.564 2.325-1.691 2.325-.663 0-1.102-.202-1.318-.607-.215-.396-.323-.977-.323-1.744v-15.213c0-.672.147-1.171.439-1.498.293-.336.694-.504 1.202-.504.499 0 .904.172 1.214.517.318.336.477.822.477 1.459zm6.91 5.127c0-.93-.142-1.726-.426-2.389-.285-.672-.681-1.184-1.189-1.537a2.776 2.776 0 0 0-1.666-.542c-.972 0-1.795.383-2.466 1.149-.663.766-.995 1.894-.995 3.384 0 1.403.332 2.497.995 3.28.663.775 1.485 1.163 2.466 1.163a2.86 2.86 0 0 0 1.628-.504c.499-.345.899-.857 1.201-1.537.301-.68.452-1.502.452-2.467zm17.719 2.622c0 .973-.237 1.808-.711 2.505-.473.689-1.175 1.214-2.105 1.576-.921.353-2.044.53-3.37.53-1.266 0-2.351-.194-3.255-.582-.904-.387-1.571-.869-2.002-1.446-.43-.586-.645-1.171-.645-1.757 0-.387.137-.718.413-.994.275-.275.624-.413 1.046-.413.37 0 .654.09.852.271.198.181.388.435.569.762.361.628.792 1.098 1.291 1.408.508.31 1.197.465 2.066.465.706 0 1.283-.155 1.731-.465.456-.319.684-.681.684-1.085 0-.62-.236-1.072-.71-1.356-.465-.284-1.235-.556-2.312-.814-1.214-.301-2.204-.615-2.97-.943-.758-.335-1.365-.774-1.821-1.317-.456-.542-.684-1.21-.684-2.002 0-.706.21-1.373.632-2.001.422-.629 1.042-1.128 1.86-1.499.827-.378 1.821-.568 2.983-.568.913 0 1.731.095 2.454.284.732.19 1.339.444 1.821.762.491.319.861.672 1.111 1.059.258.388.387.767.387 1.137 0 .404-.137.736-.413.994-.267.258-.65.388-1.149.388-.362 0-.672-.104-.93-.31-.25-.207-.538-.517-.866-.93a3.179 3.179 0 0 0-.942-.827c-.362-.206-.853-.31-1.473-.31-.637 0-1.166.138-1.588.414-.422.267-.633.602-.633 1.007 0 .37.155.676.465.917.31.232.728.426 1.253.581.525.155 1.248.344 2.169.568 1.094.267 1.985.586 2.674.956.697.37 1.222.809 1.575 1.317.362.5.543 1.072.543 1.718zm4.145-3.913-.413-6.186c-.077-1.206-.116-2.071-.116-2.596 0-.715.185-1.27.555-1.666.379-.405.874-.607 1.485-.607.741 0 1.236.258 1.486.775.249.508.374 1.244.374 2.208 0 .568-.03 1.145-.09 1.731l-.556 6.367c-.06.757-.189 1.338-.387 1.743s-.525.607-.982.607c-.465 0-.787-.194-.968-.581-.181-.396-.31-.994-.388-1.795zm1.434 8.498c-.525 0-.986-.168-1.382-.504-.387-.344-.581-.822-.581-1.434 0-.533.185-.985.555-1.356.379-.378.84-.568 1.382-.568.542 0 1.003.19 1.382.568.387.371.581.823.581 1.356 0 .603-.194 1.077-.581 1.421a1.98 1.98 0 0 1-1.356.517z" fill="#fff"/><path d="M478.494 195.198v-13.623h-36.767c-4.639 0-8.13-1.05-10.474-3.149-2.295-2.1-3.442-4.956-3.442-8.57a8 8 0 0 1 .512-2.783c.342-.976.855-1.977 1.538-3.003a49.24 49.24 0 0 1 2.124-3.076c.733-.976 1.636-2.173 2.71-3.589l38.819-51.928c2.539-3.418 4.614-5.884 6.225-7.398 1.66-1.562 3.638-2.344 5.933-2.344 7.422 0 11.133 4.248 11.133 12.744v56.69h3.149c3.76 0 6.763.513 9.009 1.538 2.295 1.025 3.442 3.272 3.442 6.738 0 2.832-.927 4.908-2.783 6.226-1.855 1.269-4.639 1.904-8.35 1.904h-4.467v13.623c0 3.76-.83 6.568-2.491 8.423-1.66 1.807-3.881 2.71-6.665 2.71-2.734 0-4.956-.928-6.665-2.783-1.66-1.904-2.49-4.688-2.49-8.35zM447 165.169h31.494v-42.554L447 165.169zm150.22-13.33c0 8.008-.489 14.892-1.465 20.654-.977 5.762-2.783 10.986-5.42 15.674-3.32 5.762-7.617 10.205-12.891 13.33-5.273 3.125-11.132 4.688-17.578 4.688-7.422 0-14.087-2.1-19.995-6.299-5.859-4.199-10.278-10.01-13.257-17.432-1.513-4.053-2.636-8.52-3.369-13.403-.683-4.932-1.025-10.254-1.025-15.967 0-7.373.39-14.014 1.172-19.922.781-5.908 2.002-10.986 3.662-15.234 2.881-7.032 7.055-12.378 12.524-16.04 5.518-3.711 12.085-5.567 19.702-5.567 5.03 0 9.595.83 13.697 2.49a30.216 30.216 0 0 1 10.766 7.178c3.125 3.125 5.762 7.007 7.91 11.646 3.711 8.056 5.567 19.458 5.567 34.204zm-20.069-1.465c0-8.936-.537-16.235-1.611-21.899-1.074-5.713-2.881-10.01-5.42-12.891-2.539-2.93-6.055-4.395-10.547-4.395-6.445 0-10.937 3.248-13.476 9.742-2.491 6.494-3.736 16.504-3.736 30.029 0 9.18.537 16.699 1.612 22.559 1.074 5.859 2.881 10.302 5.42 13.33 2.539 2.978 5.981 4.467 10.327 4.467 4.492 0 8.008-1.562 10.547-4.687 2.539-3.125 4.321-7.593 5.346-13.403 1.026-5.811 1.538-13.428 1.538-22.852zm79.761 44.824v-13.623h-36.767c-4.639 0-8.13-1.05-10.474-3.149-2.295-2.1-3.442-4.956-3.442-8.57a8 8 0 0 1 .512-2.783c.342-.976.855-1.977 1.538-3.003a49.24 49.24 0 0 1 2.124-3.076c.733-.976 1.636-2.173 2.71-3.589l38.819-51.928c2.539-3.418 4.614-5.884 6.225-7.398 1.66-1.562 3.638-2.344 5.933-2.344 7.422 0 11.133 4.248 11.133 12.744v56.69h3.149c3.76 0 6.763.513 9.009 1.538 2.295 1.025 3.442 3.272 3.442 6.738 0 2.832-.927 4.908-2.783 6.226-1.855 1.269-4.639 1.904-8.35 1.904h-4.467v13.623c0 3.76-.83 6.568-2.491 8.423-1.66 1.807-3.881 2.71-6.665 2.71-2.734 0-4.956-.928-6.665-2.783-1.66-1.904-2.49-4.688-2.49-8.35zm-31.494-30.029h31.494v-42.554l-31.494 42.554zM431.301 238.916c0-1.368-.552-2.544-1.488-3.312-.72-.6-1.44-.888-3.048-1.128l-1.848-.288c-.96-.144-1.944-.552-2.544-1.056-.6-.504-.888-1.248-.888-2.232 0-2.16 1.488-3.528 3.96-3.528 2.04 0 3.096.648 4.152 1.584l.84-.84c-1.464-1.272-2.808-1.848-4.92-1.848-3.264 0-5.304 1.824-5.304 4.68 0 1.32.432 2.376 1.344 3.144.72.624 1.752 1.056 3.048 1.248l1.992.312c1.392.216 1.848.384 2.472.912.624.552.936 1.392.936 2.4 0 2.232-1.704 3.528-4.392 3.528-2.064 0-3.312-.48-4.848-2.016l-.912.912c1.56 1.56 3.144 2.256 5.688 2.256 3.552 0 5.76-1.848 5.76-4.728zm15.094-3.96c0-3.864-.024-5.376-1.584-6.936a6.027 6.027 0 0 0-4.272-1.752 6.027 6.027 0 0 0-4.272 1.752c-1.56 1.56-1.584 3.072-1.584 6.936s.024 5.376 1.584 6.936a6.027 6.027 0 0 0 4.272 1.752 6.027 6.027 0 0 0 4.272-1.752c1.56-1.56 1.584-3.072 1.584-6.936zm-1.296 0c0 3.672-.096 4.992-1.32 6.216-.864.864-2.016 1.32-3.24 1.32-1.224 0-2.376-.456-3.24-1.32-1.224-1.224-1.32-2.544-1.32-6.216s.096-4.992 1.32-6.216c.864-.864 2.016-1.32 3.24-1.32 1.224 0 2.376.456 3.24 1.32 1.224 1.224 1.32 2.544 1.32 6.216zm17.504 8.544-4.128-7.896c2.4-.408 3.936-2.064 3.936-4.608 0-2.976-2.112-4.584-4.896-4.584h-6.504V243.5h1.296v-7.872h4.704l4.08 7.872h1.512zm-1.488-12.48c0 2.352-1.584 3.456-3.768 3.456h-5.04v-6.912h5.04c2.184 0 3.768 1.104 3.768 3.456zm17.262 12.48-4.128-7.896c2.4-.408 3.936-2.064 3.936-4.608 0-2.976-2.112-4.584-4.896-4.584h-6.504V243.5h1.296v-7.872h4.704l4.08 7.872h1.512zm-1.488-12.48c0 2.352-1.584 3.456-3.768 3.456h-5.04v-6.912h5.04c2.184 0 3.768 1.104 3.768 3.456zm14.645-4.608h-1.392l-4.248 8.64-4.344-8.64h-1.392l5.04 10.008v7.08h1.296v-7.08l5.04-10.008zm4.899 0h-1.32l.072 12.48h1.176l.072-12.48zm.144 17.088v-1.608h-1.608v1.608h1.608zm22.671-12.168c0-3.12-2.208-4.92-5.16-4.92h-6.264V243.5h1.296v-7.248h4.968c2.952 0 5.16-1.8 5.16-4.92zm-1.296 0c0 2.568-1.656 3.768-4.008 3.768h-4.824v-7.536h4.824c2.352 0 4.008 1.2 4.008 3.768zm15.265 12.168-6.288-17.088h-1.152l-6.288 17.088h1.392l1.488-4.152h7.968l1.488 4.152h1.392zm-3.288-5.304h-7.152l3.576-10.056 3.576 10.056zm17.107-.648v-2.784h-5.88v1.152h4.584v1.536c0 1.464-.288 2.472-1.032 3.384a4.59 4.59 0 0 1-3.552 1.656c-1.224 0-2.376-.456-3.24-1.32-1.224-1.224-1.32-2.544-1.32-6.216s.096-4.992 1.32-6.216c.864-.864 2.016-1.32 3.24-1.32 2.304 0 4.032 1.488 4.536 3.84h1.296c-.528-3.024-2.832-4.992-5.832-4.992a6.027 6.027 0 0 0-4.272 1.752c-1.56 1.56-1.584 3.072-1.584 6.936s.024 5.376 1.584 6.936a6.027 6.027 0 0 0 4.272 1.752c1.728 0 3.36-.72 4.488-1.968 1.008-1.08 1.392-2.352 1.392-4.128zm14.937 5.952v-1.152h-9.072v-6.888h7.728v-1.152h-7.728v-6.744h9.072v-1.152h-10.368V243.5h10.368zm22.549 0v-17.088h-1.296v14.808l-9.864-14.808h-1.296V243.5h1.296v-14.856l9.864 14.856h1.296zm16.326-8.544c0-3.864-.024-5.376-1.584-6.936a6.027 6.027 0 0 0-4.272-1.752 6.027 6.027 0 0 0-4.272 1.752c-1.56 1.56-1.584 3.072-1.584 6.936s.024 5.376 1.584 6.936a6.027 6.027 0 0 0 4.272 1.752 6.027 6.027 0 0 0 4.272-1.752c1.56-1.56 1.584-3.072 1.584-6.936zm-1.296 0c0 3.672-.096 4.992-1.32 6.216-.864.864-2.016 1.32-3.24 1.32-1.224 0-2.376-.456-3.24-1.32-1.224-1.224-1.32-2.544-1.32-6.216s.096-4.992 1.32-6.216c.864-.864 2.016-1.32 3.24-1.32 1.224 0 2.376.456 3.24 1.32 1.224 1.224 1.32 2.544 1.32 6.216zm15.019-7.392v-1.152h-11.496v1.152h5.088V243.5h1.296v-15.936h5.112zm19.847 0v-1.152H624.05V243.5h1.296v-7.752h7.728v-1.152h-7.728v-7.032h9.072zm14.032 7.392c0-3.864-.024-5.376-1.584-6.936a6.027 6.027 0 0 0-4.272-1.752 6.027 6.027 0 0 0-4.272 1.752c-1.56 1.56-1.584 3.072-1.584 6.936s.024 5.376 1.584 6.936a6.027 6.027 0 0 0 4.272 1.752 6.027 6.027 0 0 0 4.272-1.752c1.56-1.56 1.584-3.072 1.584-6.936zm-1.296 0c0 3.672-.096 4.992-1.32 6.216-.864.864-2.016 1.32-3.24 1.32-1.224 0-2.376-.456-3.24-1.32-1.224-1.224-1.32-2.544-1.32-6.216s.096-4.992 1.32-6.216c.864-.864 2.016-1.32 3.24-1.32 1.224 0 2.376.456 3.24 1.32 1.224 1.224 1.32 2.544 1.32 6.216zm17.384 3v-11.544h-1.296v11.376c0 2.832-1.824 4.704-4.56 4.704-2.736 0-4.56-1.872-4.56-4.704v-11.376h-1.296v11.544c0 3.336 2.424 5.688 5.856 5.688s5.856-2.352 5.856-5.688zm17.507 5.544v-17.088h-1.296v14.808l-9.864-14.808h-1.296V243.5h1.296v-14.856l9.864 14.856h1.296zm16.95-8.784c0-2.304.072-5.016-1.656-6.744-1.008-1.008-2.496-1.56-4.272-1.56h-5.736V243.5h5.736c1.776 0 3.264-.552 4.272-1.56 1.728-1.728 1.656-4.92 1.656-7.224zm-1.296 0c0 1.896.096 4.92-1.272 6.312-.984 1.008-2.304 1.32-3.672 1.32h-4.128v-14.784h4.128c1.368 0 2.688.312 3.672 1.32 1.368 1.392 1.272 3.936 1.272 5.832z" fill="#000"/><defs><clipPath id="a"><path fill="#fff" transform="translate(87 152)" d="M0 0h275v207H0z"/></clipPath><clipPath id="f"><path fill="#fff" transform="translate(149.885 362.951)" d="M0 0h228v170H0z"/></clipPath></defs></svg>